<svg width="1440" height="422" viewBox="0 0 1440 422" fill="none" xmlns="http://www.w3.org/2000/svg">
<g filter="url(#filter0_i_2_1300)">
<rect x="-401.047" y="342.212" width="2688.66" height="80.0713" rx="14.7668" transform="rotate(-7.30087 -401.047 342.212)" fill="#E50103"/>
</g>
<rect x="92.9612" y="298.372" width="255.14" height="47.0538" transform="rotate(-7.30087 92.9612 298.372)" fill="#030003"/>
<path d="M119.143 328.664L116.587 308.713L127.894 307.264C131.842 306.759 134.056 309.09 134.378 311.602C134.696 314.085 133.385 315.955 131.554 316.615C133.72 316.672 135.656 318.492 135.978 321.004C136.349 323.906 134.727 326.667 130.809 327.169L119.143 328.664ZM122.721 315.771L127.716 315.131C128.763 314.997 129.385 314.157 129.258 313.17C129.132 312.183 128.322 311.557 127.275 311.691L122.28 312.331L122.721 315.771ZM123.74 323.727L128.915 323.064C130.141 322.907 130.793 322.064 130.655 320.987C130.525 319.97 129.696 319.194 128.44 319.355L123.265 320.018L123.74 323.727ZM139.474 326.059L136.918 306.108L142.062 305.449L144.044 320.913L152.06 319.886L152.635 324.373L139.474 326.059ZM169.095 322.264L167.69 319.373L159.405 320.435L158.775 323.586L153.182 324.303L158.133 303.39L164.594 302.562L174.688 321.547L169.095 322.264ZM161.939 307.463L160.195 315.925L165.789 315.209L161.939 307.463ZM184.875 320.607C178.893 321.374 173.69 317.784 172.904 311.652C172.115 305.49 176.249 300.735 182.231 299.968C187.196 299.332 190.117 301.725 191.77 304.188L187.612 306.849C186.751 305.348 184.877 304.251 182.813 304.515C179.702 304.914 177.721 307.721 178.139 310.981C178.557 314.242 181.182 316.459 184.292 316.061C186.356 315.796 187.893 314.262 188.348 312.592L193.043 314.119C192.086 316.856 189.84 319.971 184.875 320.607ZM207.633 317.327L201.436 310.49L200.305 312.337L201.052 318.17L195.908 318.829L193.351 298.878L198.496 298.219L199.546 306.415L204.628 297.433L210.969 296.621L204.418 306.946L213.944 316.518L207.633 317.327Z" fill="#E50103"/>
<path d="M226.776 314.872L224.22 294.921L238.847 293.047L239.402 297.385L229.921 298.599L230.346 301.919L239.618 300.731L240.178 305.099L230.906 306.286L231.921 314.213L226.776 314.872ZM255.312 311.216L251.096 304.885L248.464 305.223L249.33 311.982L244.186 312.642L241.629 292.691L251.62 291.411C256.047 290.844 258.935 293.453 259.41 297.162C259.854 300.632 257.968 302.758 256.198 303.654L261.205 310.461L255.312 311.216ZM254.168 297.773C253.992 296.397 252.744 295.675 251.398 295.848L247.33 296.369L247.905 300.856L251.973 300.334C253.319 300.162 254.344 299.149 254.168 297.773ZM263.961 310.108L261.405 290.157L266.549 289.498L269.105 309.449L263.961 310.108ZM272.695 308.989L270.139 289.038L278.514 287.965C284.795 287.161 289.794 290.351 290.588 296.542C291.381 302.734 287.351 307.111 281.1 307.912L272.695 308.989ZM277.264 303.843L280.495 303.429C283.994 302.981 285.703 300.178 285.323 297.217C284.929 294.136 282.768 291.981 279.118 292.448L275.858 292.866L277.264 303.843ZM307.252 304.562L305.848 301.671L297.563 302.732L296.933 305.884L291.339 306.6L296.291 285.688L302.752 284.86L312.845 303.845L307.252 304.562ZM300.096 289.761L298.353 298.223L303.946 297.506L300.096 289.761ZM317.718 303.221L316.687 295.175L307.595 284.24L313.397 283.496L318.677 290.299L322.012 282.392L327.844 281.645L321.832 294.516L322.863 302.562L317.718 303.221Z" fill="white"/>
<rect x="657.342" y="226.065" width="255.14" height="47.0538" transform="rotate(-7.30087 657.342 226.065)" fill="#030003"/>
<path d="M683.52 256.354L680.964 236.403L692.271 234.955C696.219 234.449 698.433 236.78 698.755 239.293C699.073 241.775 697.762 243.646 695.931 244.306C698.097 244.363 700.033 246.182 700.355 248.695C700.726 251.596 699.104 254.358 695.186 254.86L683.52 256.354ZM687.098 243.461L692.093 242.821C693.14 242.687 693.762 241.848 693.635 240.86C693.509 239.873 692.699 239.248 691.652 239.382L686.657 240.022L687.098 243.461ZM688.117 251.418L693.292 250.755C694.518 250.598 695.17 249.754 695.032 248.677C694.902 247.66 694.073 246.885 692.817 247.046L687.642 247.709L688.117 251.418ZM703.851 253.75L701.295 233.799L706.439 233.14L708.42 248.604L716.437 247.577L717.011 252.063L703.851 253.75ZM733.471 249.955L732.067 247.064L723.782 248.125L723.152 251.277L717.559 251.993L722.51 231.081L728.971 230.253L739.065 249.238L733.471 249.955ZM726.316 235.153L724.572 243.616L730.166 242.899L726.316 235.153ZM749.252 248.298C743.27 249.064 738.067 245.474 737.281 239.343C736.492 233.181 740.625 228.425 746.608 227.659C751.573 227.023 754.494 229.415 756.147 231.879L751.989 234.54C751.128 233.039 749.254 231.941 747.19 232.205C744.079 232.604 742.098 235.412 742.516 238.672C742.934 241.932 745.559 244.15 748.669 243.751C750.733 243.487 752.27 241.952 752.725 240.283L757.42 241.809C756.463 244.546 754.217 247.661 749.252 248.298ZM772.01 245.017L765.813 238.18L764.682 240.027L765.429 245.86L760.284 246.519L757.728 226.569L762.873 225.909L763.923 234.105L769.005 225.124L775.346 224.311L768.795 234.636L778.321 244.209L772.01 245.017Z" fill="#E50103"/>
<path d="M791.153 242.564L788.597 222.614L803.224 220.74L803.779 225.077L794.298 226.292L794.723 229.612L803.995 228.424L804.555 232.791L795.282 233.979L796.298 241.905L791.153 242.564ZM819.689 238.908L815.473 232.578L812.841 232.915L813.707 239.675L808.563 240.334L806.006 220.383L815.997 219.103C820.424 218.536 823.312 221.146 823.787 224.855C824.231 228.324 822.345 230.451 820.575 231.346L825.582 238.154L819.689 238.908ZM818.545 225.465C818.368 224.089 817.121 223.368 815.775 223.54L811.707 224.061L812.282 228.548L816.35 228.027C817.696 227.854 818.721 226.841 818.545 225.465ZM828.338 237.8L825.782 217.85L830.926 217.191L833.482 237.141L828.338 237.8ZM837.072 236.681L834.515 216.731L842.891 215.658C849.172 214.853 854.171 218.043 854.965 224.235C855.758 230.426 851.728 234.804 845.477 235.605L837.072 236.681ZM841.641 231.536L844.872 231.122C848.371 230.673 850.08 227.87 849.7 224.909C849.306 221.828 847.145 219.673 843.495 220.141L840.235 220.558L841.641 231.536ZM871.629 232.254L870.225 229.363L861.94 230.425L861.31 233.576L855.716 234.293L860.668 213.38L867.129 212.552L877.222 231.537L871.629 232.254ZM864.473 217.453L862.73 225.915L868.323 225.199L864.473 217.453ZM882.095 230.913L881.064 222.867L871.971 211.932L877.774 211.189L883.054 217.991L886.389 210.085L892.221 209.338L886.209 222.208L887.24 230.254L882.095 230.913Z" fill="white"/>
<rect x="1221.73" y="153.757" width="255.14" height="47.0538" transform="rotate(-7.30087 1221.73 153.757)" fill="#030003"/>
<path d="M1247.91 184.046L1245.35 164.096L1256.66 162.647C1260.61 162.141 1262.82 164.472 1263.15 166.985C1263.46 169.467 1262.15 171.338 1260.32 171.998C1262.49 172.055 1264.42 173.874 1264.75 176.387C1265.12 179.288 1263.49 182.05 1259.58 182.552L1247.91 184.046ZM1251.49 171.154L1256.48 170.514C1257.53 170.379 1258.15 169.54 1258.03 168.553C1257.9 167.566 1257.09 166.94 1256.04 167.074L1251.05 167.714L1251.49 171.154ZM1252.51 179.11L1257.68 178.447C1258.91 178.29 1259.56 177.446 1259.42 176.369C1259.29 175.352 1258.46 174.577 1257.21 174.738L1252.03 175.401L1252.51 179.11ZM1268.24 181.442L1265.68 161.491L1270.83 160.832L1272.81 176.296L1280.83 175.269L1281.4 179.756L1268.24 181.442ZM1297.86 177.647L1296.46 174.756L1288.17 175.817L1287.54 178.969L1281.95 179.685L1286.9 158.773L1293.36 157.945L1303.46 176.93L1297.86 177.647ZM1290.71 162.846L1288.96 171.308L1294.56 170.591L1290.71 162.846ZM1313.64 175.99C1307.66 176.756 1302.46 173.166 1301.67 167.035C1300.88 160.873 1305.02 156.117 1311 155.351C1315.96 154.715 1318.88 157.107 1320.54 159.571L1316.38 162.232C1315.52 160.731 1313.64 159.633 1311.58 159.898C1308.47 160.296 1306.49 163.104 1306.91 166.364C1307.32 169.624 1309.95 171.842 1313.06 171.443C1315.12 171.179 1316.66 169.644 1317.11 167.975L1321.81 169.501C1320.85 172.238 1318.61 175.354 1313.64 175.99ZM1336.4 172.709L1330.2 165.872L1329.07 167.72L1329.82 173.552L1324.67 174.211L1322.12 154.261L1327.26 153.602L1328.31 161.797L1333.4 152.816L1339.74 152.004L1333.19 162.328L1342.71 171.901L1336.4 172.709Z" fill="#E50103"/>
<path d="M1355.55 170.258L1352.99 150.307L1367.62 148.433L1368.17 152.77L1358.69 153.985L1359.12 157.305L1368.39 156.117L1368.95 160.484L1359.68 161.672L1360.69 169.598L1355.55 170.258ZM1384.08 166.602L1379.87 160.271L1377.24 160.608L1378.1 167.368L1372.96 168.027L1370.4 148.076L1380.39 146.796C1384.82 146.229 1387.71 148.839 1388.18 152.548C1388.63 156.017 1386.74 158.144 1384.97 159.04L1389.98 165.847L1384.08 166.602ZM1382.94 153.158C1382.76 151.783 1381.52 151.061 1380.17 151.233L1376.1 151.754L1376.68 156.241L1380.74 155.72C1382.09 155.547 1383.12 154.534 1382.94 153.158ZM1392.73 165.494L1390.18 145.543L1395.32 144.884L1397.88 164.834L1392.73 165.494ZM1401.47 164.375L1398.91 144.424L1407.28 143.351C1413.57 142.546 1418.57 145.736 1419.36 151.928C1420.15 158.119 1416.12 162.497 1409.87 163.298L1401.47 164.375ZM1406.04 159.229L1409.27 158.815C1412.77 158.367 1414.47 155.564 1414.09 152.602C1413.7 149.521 1411.54 147.366 1407.89 147.834L1404.63 148.251L1406.04 159.229ZM1436.02 159.947L1434.62 157.056L1426.33 158.118L1425.7 161.269L1420.11 161.986L1425.06 141.073L1431.52 140.246L1441.62 159.231L1436.02 159.947ZM1428.87 145.146L1427.12 153.608L1432.72 152.892L1428.87 145.146ZM1446.49 158.606L1445.46 150.56L1436.37 139.625L1442.17 138.882L1447.45 145.684L1450.78 137.778L1456.62 137.031L1450.6 149.901L1451.63 157.947L1446.49 158.606Z" fill="white"/>
<path d="M401.329 292.509L398.773 272.559L410.079 271.11C414.028 270.604 416.242 272.935 416.563 275.448C416.882 277.93 415.571 279.801 413.74 280.461C415.906 280.518 417.841 282.337 418.163 284.85C418.535 287.751 416.913 290.513 412.994 291.015L401.329 292.509ZM404.906 279.617L409.901 278.977C410.948 278.843 411.57 278.003 411.444 277.016C411.317 276.029 410.508 275.403 409.461 275.537L404.466 276.177L404.906 279.617ZM405.926 287.573L411.1 286.91C412.327 286.753 412.979 285.909 412.841 284.833C412.71 283.816 411.881 283.04 410.625 283.201L405.45 283.864L405.926 287.573ZM421.659 289.905L419.103 269.954L424.248 269.295L426.229 284.759L434.245 283.732L434.82 288.219L421.659 289.905ZM451.28 286.11L449.876 283.219L441.591 284.281L440.961 287.432L435.367 288.149L440.319 267.236L446.78 266.408L456.873 285.393L451.28 286.11ZM444.124 271.309L442.381 279.771L447.974 279.054L444.124 271.309ZM467.06 284.453C461.078 285.219 455.876 281.63 455.09 275.498C454.301 269.336 458.434 264.581 464.416 263.814C469.382 263.178 472.303 265.57 473.956 268.034L469.797 270.695C468.936 269.194 467.063 268.096 464.999 268.361C461.888 268.759 459.907 271.567 460.324 274.827C460.742 278.087 463.367 280.305 466.478 279.906C468.542 279.642 470.078 278.107 470.533 276.438L475.228 277.964C474.272 280.702 472.026 283.817 467.06 284.453ZM489.818 281.172L483.622 274.335L482.49 276.183L483.238 282.015L478.093 282.675L475.537 262.724L480.682 262.065L481.732 270.26L486.813 261.279L493.155 260.467L486.603 270.792L496.129 280.364L489.818 281.172Z" fill="#030003"/>
<path d="M508.962 278.719L506.406 258.768L521.032 256.894L521.588 261.231L512.106 262.446L512.532 265.766L521.804 264.578L522.364 268.945L513.091 270.133L514.107 278.06L508.962 278.719ZM537.498 275.063L533.282 268.732L530.65 269.069L531.516 275.829L526.371 276.488L523.815 256.538L533.805 255.258C538.232 254.69 541.12 257.3 541.595 261.009C542.04 264.479 540.154 266.605 538.384 267.501L543.391 274.308L537.498 275.063ZM536.353 261.62C536.177 260.244 534.929 259.522 533.583 259.694L529.515 260.216L530.09 264.702L534.158 264.181C535.504 264.009 536.53 262.996 536.353 261.62ZM546.146 273.955L543.59 254.004L548.735 253.345L551.291 273.296L546.146 273.955ZM554.88 272.836L552.324 252.885L560.699 251.812C566.981 251.007 571.98 254.197 572.773 260.389C573.566 266.581 569.537 270.958 563.285 271.759L554.88 272.836ZM559.45 267.69L562.68 267.276C566.18 266.828 567.888 264.025 567.509 261.063C567.114 257.983 564.953 255.827 561.304 256.295L558.044 256.713L559.45 267.69ZM589.438 268.408L588.034 265.518L579.748 266.579L579.118 269.73L573.525 270.447L578.476 249.534L584.937 248.707L595.031 267.692L589.438 268.408ZM582.282 253.607L580.538 262.07L586.132 261.353L582.282 253.607ZM599.904 267.067L598.873 259.021L589.78 248.086L595.583 247.343L600.863 254.145L604.197 246.239L610.03 245.492L604.017 258.362L605.048 266.408L599.904 267.067Z" fill="white"/>
<path d="M965.722 220.199L963.165 200.248L974.472 198.799C978.42 198.294 980.634 200.624 980.956 203.137C981.274 205.62 979.963 207.49 978.132 208.15C980.298 208.207 982.234 210.027 982.556 212.539C982.928 215.44 981.305 218.202 977.387 218.704L965.722 220.199ZM969.299 207.306L974.294 206.666C975.341 206.532 975.963 205.692 975.837 204.705C975.71 203.718 974.9 203.092 973.853 203.226L968.858 203.866L969.299 207.306ZM970.318 215.262L975.493 214.599C976.719 214.442 977.371 213.599 977.233 212.522C977.103 211.505 976.274 210.729 975.018 210.89L969.843 211.553L970.318 215.262ZM986.052 217.594L983.496 197.643L988.64 196.984L990.622 212.448L998.638 211.421L999.213 215.908L986.052 217.594ZM1015.67 213.799L1014.27 210.908L1005.98 211.97L1005.35 215.121L999.76 215.838L1004.71 194.925L1011.17 194.097L1021.27 213.082L1015.67 213.799ZM1008.52 198.998L1006.77 207.46L1012.37 206.744L1008.52 198.998ZM1031.45 212.142C1025.47 212.909 1020.27 209.319 1019.48 203.187C1018.69 197.025 1022.83 192.27 1028.81 191.503C1033.77 190.867 1036.7 193.26 1038.35 195.723L1034.19 198.384C1033.33 196.883 1031.46 195.785 1029.39 196.05C1026.28 196.448 1024.3 199.256 1024.72 202.516C1025.13 205.777 1027.76 207.994 1030.87 207.596C1032.93 207.331 1034.47 205.797 1034.93 204.127L1039.62 205.654C1038.66 208.391 1036.42 211.506 1031.45 212.142ZM1054.21 208.862L1048.01 202.025L1046.88 203.872L1047.63 209.705L1042.49 210.364L1039.93 190.413L1045.07 189.754L1046.12 197.95L1051.21 188.968L1057.55 188.156L1051 198.481L1060.52 208.053L1054.21 208.862Z" fill="#030003"/>
<path d="M1073.35 206.408L1070.8 186.457L1085.42 184.583L1085.98 188.92L1076.5 190.135L1076.92 193.455L1086.2 192.267L1086.76 196.634L1077.48 197.822L1078.5 205.749L1073.35 206.408ZM1101.89 202.752L1097.67 196.421L1095.04 196.758L1095.91 203.518L1090.76 204.178L1088.21 184.227L1098.2 182.947C1102.62 182.38 1105.51 184.989 1105.99 188.698C1106.43 192.168 1104.55 194.294 1102.78 195.19L1107.78 201.997L1101.89 202.752ZM1100.75 189.309C1100.57 187.933 1099.32 187.211 1097.98 187.384L1093.91 187.905L1094.48 192.391L1098.55 191.87C1099.9 191.698 1100.92 190.685 1100.75 189.309ZM1110.54 201.644L1107.98 181.693L1113.13 181.034L1115.68 200.985L1110.54 201.644ZM1119.27 200.525L1116.72 180.574L1125.09 179.501C1131.37 178.696 1136.37 181.887 1137.17 188.078C1137.96 194.27 1133.93 198.647 1127.68 199.448L1119.27 200.525ZM1123.84 195.379L1127.07 194.965C1130.57 194.517 1132.28 191.714 1131.9 188.753C1131.51 185.672 1129.35 183.517 1125.7 183.984L1122.44 184.402L1123.84 195.379ZM1153.83 196.098L1152.43 193.207L1144.14 194.268L1143.51 197.42L1137.92 198.136L1142.87 177.224L1149.33 176.396L1159.42 195.381L1153.83 196.098ZM1146.67 181.296L1144.93 189.759L1150.52 189.042L1146.67 181.296ZM1164.3 194.757L1163.27 186.711L1154.17 175.775L1159.98 175.032L1165.26 181.834L1168.59 173.928L1174.42 173.181L1168.41 186.051L1169.44 194.098L1164.3 194.757Z" fill="white"/>
<path d="M-55.4346 351.027L-57.9907 331.077L-43.3641 329.203L-42.8084 333.54L-52.2903 334.755L-51.8649 338.075L-42.5925 336.887L-42.033 341.254L-51.3054 342.442L-50.2899 350.368L-55.4346 351.027ZM-26.8984 347.371L-31.1146 341.041L-33.7467 341.378L-32.8807 348.138L-38.0254 348.797L-40.5814 328.846L-30.5911 327.566C-26.1643 326.999 -23.2762 329.608 -22.801 333.317C-22.3565 336.787 -24.2426 338.914 -26.0128 339.809L-21.006 346.616L-26.8984 347.371ZM-28.0431 333.928C-28.2194 332.552 -29.4672 331.831 -30.8132 332.003L-34.8811 332.524L-34.3062 337.011L-30.2383 336.49C-28.8923 336.317 -27.8668 335.304 -28.0431 333.928ZM-18.2502 346.263L-20.8062 326.313L-15.6615 325.653L-13.1054 345.604L-18.2502 346.263ZM-9.51634 345.144L-12.0724 325.194L-3.69728 324.121C2.58406 323.316 7.58349 326.506 8.37675 332.698C9.17001 338.889 5.14011 343.267 -1.11131 344.068L-9.51634 345.144ZM-4.94645 339.999L-1.71605 339.585C1.78355 339.136 3.49177 336.333 3.11239 333.372C2.71768 330.291 0.556614 328.136 -3.09254 328.603L-6.35286 329.021L-4.94645 339.999ZM25.0411 340.717L23.637 337.826L15.3516 338.888L14.7217 342.039L9.12834 342.756L14.08 321.843L20.5408 321.015L30.6344 340L25.0411 340.717ZM17.8852 325.916L16.142 334.378L21.7354 333.662L17.8852 325.916ZM35.5072 339.376L34.4763 331.33L25.3836 320.395L31.1863 319.651L36.4662 326.454L39.8007 318.548L45.6334 317.8L39.621 330.671L40.6519 338.717L35.5072 339.376Z" fill="white"/>
<defs>
<filter id="filter0_i_2_1300" x="-399.292" y="2.29321" width="2673.53" height="417.586" filterUnits="userSpaceOnUse" color-interpolation-filters="sRGB">
<feFlood flood-opacity="0" result="BackgroundImageFix"/>
<feBlend mode="normal" in="SourceGraphic" in2="BackgroundImageFix" result="shape"/>
<feColorMatrix in="SourceAlpha" type="matrix" values="0 0 0 0 0 0 0 0 0 0 0 0 0 0 0 0 0 0 127 0" result="hardAlpha"/>
<feOffset/>
<feGaussianBlur stdDeviation="5.53879"/>
<feComposite in2="hardAlpha" operator="arithmetic" k2="-1" k3="1"/>
<feColorMatrix type="matrix" values="0 0 0 0 0 0 0 0 0 0 0 0 0 0 0 0 0 0 0.55 0"/>
<feBlend mode="normal" in2="shape" result="effect1_innerShadow_2_1300"/>
</filter>
</defs>
</svg>
