<svg width="1440" height="347" viewBox="0 0 1440 347" fill="none" xmlns="http://www.w3.org/2000/svg">
<g filter="url(#filter0_i_2_1331)">
<rect x="-1392.29" y="0.830566" width="3419.87" height="80.0713" rx="14.7668" transform="rotate(4.46559 -1392.29 0.830566)" fill="#FFD000"/>
</g>
<rect x="-170.73" y="115.584" width="255.14" height="47.0539" transform="rotate(4.46559 -170.73 115.584)" fill="#030003"/>
<path d="M-43.0939 159.026L-41.5278 138.973L-26.8265 140.122L-27.1669 144.481L-36.6972 143.737L-36.9579 147.074L-27.638 147.802L-27.9808 152.191L-37.3007 151.463L-37.9229 159.43L-43.0939 159.026ZM-14.4118 161.266L-17.2484 154.209L-19.894 154.002L-20.4246 160.797L-25.5956 160.393L-24.0296 140.34L-13.9882 141.124C-9.53869 141.472 -7.24341 144.615 -7.53455 148.343C-7.80691 151.831 -10.087 153.528 -12.0027 154.044L-8.48919 161.729L-14.4118 161.266ZM-12.7911 147.872C-12.6831 146.489 -13.7574 145.528 -15.1103 145.423L-19.199 145.103L-19.5512 149.613L-15.4625 149.932C-14.1096 150.038 -12.8991 149.255 -12.7911 147.872ZM-5.7193 161.945L-4.15323 141.892L1.01779 142.296L-0.548276 162.349L-5.7193 161.945ZM3.05918 162.631L4.62525 142.578L13.0432 143.235C19.3566 143.728 23.6005 147.871 23.1145 154.094C22.6284 160.318 17.7906 163.781 11.5072 163.29L3.05918 162.631ZM8.58239 158.525L11.8293 158.778C15.3468 159.053 17.5907 156.657 17.8232 153.681C18.065 150.584 16.3889 148.034 12.7211 147.747L9.44408 147.491L8.58239 158.525ZM37.7933 165.343L37.0082 162.227L28.6805 161.577L27.4212 164.533L21.7992 164.094L30.9113 144.631L37.4052 145.138L43.4153 165.782L37.7933 165.343ZM33.8061 149.394L30.3738 157.323L35.9958 157.762L33.8061 149.394ZM48.3129 166.165L48.9445 158.078L42.2727 145.518L48.1052 145.974L51.8869 153.71L56.7636 146.65L62.6261 147.108L54.1155 158.481L53.4839 166.569L48.3129 166.165Z" fill="white"/>
<rect x="396.539" y="159.887" width="255.14" height="47.0539" transform="rotate(4.46559 396.539 159.887)" fill="#030003"/>
<path d="M415.994 194.88L417.56 174.827L428.924 175.715C432.893 176.025 434.585 178.758 434.388 181.284C434.193 183.779 432.528 185.343 430.601 185.616C432.71 186.113 434.234 188.289 434.037 190.814C433.809 193.731 431.657 196.103 427.719 195.796L415.994 194.88ZM422.125 182.988L427.146 183.38C428.198 183.462 428.979 182.767 429.056 181.775C429.134 180.782 428.468 180.005 427.416 179.922L422.395 179.53L422.125 182.988ZM421.501 190.985L426.702 191.391C427.935 191.487 428.745 190.794 428.829 189.712C428.909 188.69 428.256 187.762 426.993 187.663L421.792 187.257L421.501 190.985ZM436.428 196.476L437.994 176.423L443.165 176.827L441.951 192.37L450.009 192.999L449.656 197.509L436.428 196.476ZM466.201 198.801L465.416 195.685L457.088 195.034L455.828 197.991L450.207 197.552L459.319 178.089L465.812 178.596L471.823 199.24L466.201 198.801ZM462.213 182.852L458.781 190.781L464.403 191.22L462.213 182.852ZM481.987 200.397C475.974 199.927 471.613 195.352 472.095 189.189C472.578 182.996 477.595 179.183 483.607 179.653C488.598 180.042 490.97 182.98 492.086 185.729L487.472 187.486C486.935 185.841 485.325 184.384 483.25 184.222C480.124 183.978 477.612 186.323 477.356 189.6C477.1 192.877 479.218 195.583 482.344 195.827C484.419 195.989 486.236 194.8 487.021 193.258L491.307 195.71C489.812 198.195 486.978 200.787 481.987 200.397ZM504.936 201.826L500.264 193.869L498.78 195.447L498.322 201.31L493.151 200.906L494.717 180.853L499.888 181.257L499.244 189.494L506.051 181.738L512.424 182.236L503.905 191.008L511.279 202.322L504.936 201.826Z" fill="#FFD000"/>
<path d="M524.176 203.329L525.742 183.276L540.443 184.424L540.103 188.784L530.572 188.039L530.312 191.376L539.632 192.104L539.289 196.494L529.969 195.766L529.347 203.733L524.176 203.329ZM552.858 205.569L550.021 198.512L547.376 198.305L546.845 205.099L541.674 204.696L543.24 184.643L553.281 185.427C557.731 185.775 560.026 188.918 559.735 192.646C559.463 196.133 557.183 197.831 555.267 198.346L558.78 206.032L552.858 205.569ZM554.478 192.175C554.586 190.792 553.512 189.831 552.159 189.725L548.071 189.406L547.718 193.916L551.807 194.235C553.16 194.341 554.37 193.558 554.478 192.175ZM561.55 206.248L563.116 186.195L568.287 186.599L566.721 206.652L561.55 206.248ZM570.329 206.933L571.895 186.881L580.313 187.538C586.626 188.031 590.87 192.174 590.384 198.397C589.898 204.62 585.06 208.084 578.777 207.593L570.329 206.933ZM575.852 202.828L579.099 203.081C582.616 203.356 584.86 200.96 585.093 197.984C585.335 194.887 583.658 192.336 579.991 192.05L576.714 191.794L575.852 202.828ZM605.063 209.646L604.278 206.53L595.95 205.879L594.691 208.836L589.069 208.397L598.181 188.934L604.675 189.441L610.685 210.085L605.063 209.646ZM601.076 193.697L597.643 201.626L603.265 202.065L601.076 193.697ZM615.582 210.468L616.214 202.38L609.542 189.821L615.375 190.276L619.156 198.013L624.033 190.953L629.896 191.41L621.385 202.784L620.753 210.871L615.582 210.468Z" fill="white"/>
<rect x="963.824" y="204.194" width="255.14" height="47.0539" transform="rotate(4.46559 963.824 204.194)" fill="#030003"/>
<path d="M983.279 239.187L984.845 219.134L996.21 220.021C1000.18 220.331 1001.87 223.065 1001.67 225.59C1001.48 228.085 999.813 229.649 997.886 229.922C999.995 230.42 1001.52 232.596 1001.32 235.121C1001.09 238.037 998.943 240.41 995.004 240.102L983.279 239.187ZM989.411 227.294L994.431 227.686C995.483 227.769 996.264 227.073 996.341 226.081C996.419 225.089 995.753 224.311 994.701 224.229L989.681 223.837L989.411 227.294ZM988.786 235.291L993.987 235.698C995.22 235.794 996.03 235.101 996.115 234.019C996.194 232.996 995.541 232.068 994.278 231.97L989.077 231.563L988.786 235.291ZM1003.71 240.783L1005.28 220.73L1010.45 221.134L1009.24 236.677L1017.29 237.306L1016.94 241.816L1003.71 240.783ZM1033.49 243.108L1032.7 239.991L1024.37 239.341L1023.11 242.298L1017.49 241.859L1026.6 222.395L1033.1 222.902L1039.11 243.547L1033.49 243.108ZM1029.5 227.158L1026.07 235.087L1031.69 235.526L1029.5 227.158ZM1049.27 244.704C1043.26 244.234 1038.9 239.659 1039.38 233.496C1039.86 227.302 1044.88 223.49 1050.89 223.959C1055.88 224.349 1058.26 227.287 1059.37 230.036L1054.76 231.793C1054.22 230.148 1052.61 228.691 1050.54 228.529C1047.41 228.285 1044.9 230.629 1044.64 233.906C1044.38 237.183 1046.5 239.89 1049.63 240.134C1051.7 240.296 1053.52 239.107 1054.31 237.565L1058.59 240.017C1057.1 242.502 1054.26 245.093 1049.27 244.704ZM1072.22 246.133L1067.55 238.176L1066.06 239.754L1065.61 245.616L1060.44 245.212L1062 225.16L1067.17 225.563L1066.53 233.801L1073.34 226.045L1079.71 226.543L1071.19 235.314L1078.56 246.628L1072.22 246.133Z" fill="#FFD000"/>
<path d="M1091.46 247.636L1093.03 227.583L1107.73 228.731L1107.39 233.09L1097.86 232.346L1097.6 235.683L1106.92 236.411L1106.57 240.8L1097.25 240.072L1096.63 248.039L1091.46 247.636ZM1120.14 249.876L1117.31 242.818L1114.66 242.612L1114.13 249.406L1108.96 249.002L1110.53 228.949L1120.57 229.734C1125.02 230.081 1127.31 233.225 1127.02 236.953C1126.75 240.44 1124.47 242.137 1122.55 242.653L1126.07 250.338L1120.14 249.876ZM1121.76 236.482C1121.87 235.099 1120.8 234.138 1119.44 234.032L1115.36 233.713L1115 238.222L1119.09 238.542C1120.45 238.647 1121.66 237.865 1121.76 236.482ZM1128.84 250.554L1130.4 230.502L1135.57 230.906L1134.01 250.958L1128.84 250.554ZM1137.61 251.24L1139.18 231.187L1147.6 231.845C1153.91 232.338 1158.16 236.48 1157.67 242.704C1157.18 248.927 1152.35 252.391 1146.06 251.9L1137.61 251.24ZM1143.14 247.134L1146.38 247.388C1149.9 247.663 1152.15 245.267 1152.38 242.29C1152.62 239.194 1150.94 236.643 1147.28 236.357L1144 236.101L1143.14 247.134ZM1172.35 253.953L1171.56 250.836L1163.24 250.186L1161.98 253.143L1156.35 252.704L1165.47 233.24L1171.96 233.747L1177.97 254.392L1172.35 253.953ZM1168.36 238.003L1164.93 245.932L1170.55 246.371L1168.36 238.003ZM1182.87 254.774L1183.5 246.687L1176.83 234.127L1182.66 234.583L1186.44 242.319L1191.32 235.259L1197.18 235.717L1188.67 247.091L1188.04 255.178L1182.87 254.774Z" fill="white"/>
<path d="M132.353 172.73L133.919 152.677L145.284 153.564C149.252 153.874 150.944 156.608 150.747 159.133C150.552 161.628 148.887 163.192 146.961 163.465C149.069 163.963 150.593 166.139 150.396 168.664C150.168 171.58 148.017 173.953 144.078 173.645L132.353 172.73ZM138.485 160.837L143.505 161.229C144.558 161.312 145.338 160.616 145.415 159.624C145.493 158.632 144.828 157.854 143.775 157.772L138.755 157.38L138.485 160.837ZM137.86 168.834L143.061 169.241C144.294 169.337 145.104 168.644 145.189 167.562C145.269 166.539 144.615 165.611 143.352 165.513L138.151 165.106L137.86 168.834ZM152.788 174.325L154.354 154.273L159.525 154.677L158.311 170.22L166.368 170.849L166.016 175.359L152.788 174.325ZM182.56 176.651L181.775 173.534L173.447 172.884L172.188 175.841L166.566 175.402L175.678 155.938L182.172 156.445L188.182 177.09L182.56 176.651ZM178.573 160.701L175.141 168.63L180.762 169.069L178.573 160.701ZM198.347 178.246C192.334 177.777 187.973 173.202 188.454 167.039C188.938 160.845 193.954 157.033 199.967 157.502C204.957 157.892 207.329 160.83 208.445 163.579L203.832 165.336C203.295 163.691 201.684 162.234 199.61 162.072C196.483 161.828 193.971 164.172 193.715 167.449C193.459 170.726 195.577 173.433 198.704 173.677C200.778 173.839 202.595 172.65 203.381 171.108L207.666 173.56C206.171 176.045 203.337 178.636 198.347 178.246ZM221.295 179.676L216.623 171.719L215.139 173.297L214.681 179.159L209.51 178.755L211.076 158.703L216.247 159.106L215.604 167.344L222.41 159.588L228.784 160.086L220.265 168.857L227.639 180.171L221.295 179.676Z" fill="#030003"/>
<path d="M240.535 181.179L242.101 161.126L256.802 162.274L256.462 166.633L246.932 165.889L246.671 169.226L255.991 169.954L255.648 174.343L246.328 173.615L245.706 181.582L240.535 181.179ZM269.217 183.419L266.381 176.361L263.735 176.155L263.204 182.949L258.033 182.545L259.599 162.492L269.641 163.277C274.09 163.624 276.385 166.768 276.094 170.496C275.822 173.983 273.542 175.68 271.626 176.196L275.14 183.881L269.217 183.419ZM270.838 170.025C270.946 168.642 269.871 167.681 268.519 167.575L264.43 167.256L264.078 171.765L268.166 172.084C269.519 172.19 270.73 171.407 270.838 170.025ZM277.91 184.097L279.476 164.045L284.647 164.449L283.081 184.501L277.91 184.097ZM286.688 184.783L288.254 164.73L296.672 165.388C302.986 165.881 307.229 170.023 306.743 176.247C306.257 182.47 301.419 185.933 295.136 185.443L286.688 184.783ZM292.211 180.677L295.458 180.931C298.976 181.206 301.22 178.81 301.452 175.833C301.694 172.737 300.018 170.186 296.35 169.9L293.073 169.644L292.211 180.677ZM321.422 187.496L320.637 184.379L312.309 183.729L311.05 186.686L305.428 186.247L314.54 166.783L321.034 167.29L327.044 187.935L321.422 187.496ZM317.435 171.546L314.003 179.475L319.625 179.914L317.435 171.546ZM331.942 188.317L332.573 180.23L325.902 167.67L331.734 168.126L335.516 175.862L340.393 168.802L346.255 169.26L337.744 180.634L337.113 188.721L331.942 188.317Z" fill="white"/>
<path d="M699.637 217.035L701.203 196.983L712.567 197.87C716.535 198.18 718.227 200.913 718.03 203.439C717.835 205.934 716.171 207.498 714.244 207.771C716.352 208.268 717.876 210.444 717.679 212.97C717.451 215.886 715.3 218.259 711.362 217.951L699.637 217.035ZM705.768 205.143L710.789 205.535C711.841 205.617 712.621 204.922 712.699 203.93C712.776 202.938 712.111 202.16 711.059 202.078L706.038 201.686L705.768 205.143ZM705.143 213.14L710.344 213.546C711.577 213.642 712.387 212.95 712.472 211.867C712.552 210.845 711.898 209.917 710.636 209.818L705.435 209.412L705.143 213.14ZM720.071 218.631L721.637 198.578L726.808 198.982L725.594 214.525L733.651 215.155L733.299 219.664L720.071 218.631ZM749.843 220.956L749.058 217.84L740.73 217.19L739.471 220.146L733.849 219.707L742.961 200.244L749.455 200.751L755.465 221.395L749.843 220.956ZM745.856 205.007L742.424 212.936L748.046 213.375L745.856 205.007ZM765.63 222.552C759.617 222.083 755.256 217.507 755.737 211.344C756.221 205.151 761.237 201.338 767.25 201.808C772.241 202.198 774.612 205.135 775.729 207.884L771.115 209.641C770.578 207.996 768.967 206.54 766.893 206.378C763.766 206.134 761.254 208.478 760.998 211.755C760.742 215.032 762.86 217.738 765.987 217.982C768.061 218.144 769.878 216.955 770.664 215.414L774.949 217.866C773.454 220.35 770.621 222.942 765.63 222.552ZM788.578 223.981L783.906 216.024L782.422 217.602L781.964 223.465L776.793 223.061L778.359 203.008L783.53 203.412L782.887 211.65L789.693 203.893L796.067 204.391L787.548 213.163L794.922 224.477L788.578 223.981Z" fill="#030003"/>
<path d="M807.818 225.484L809.384 205.432L824.086 206.58L823.745 210.939L814.215 210.195L813.954 213.532L823.274 214.26L822.931 218.649L813.611 217.921L812.989 225.888L807.818 225.484ZM836.5 227.724L833.664 220.667L831.018 220.46L830.487 227.255L825.316 226.851L826.883 206.798L836.924 207.582C841.373 207.93 843.669 211.073 843.378 214.801C843.105 218.289 840.825 219.986 838.909 220.502L842.423 228.187L836.5 227.724ZM838.121 214.33C838.229 212.947 837.155 211.986 835.802 211.881L831.713 211.561L831.361 216.071L835.45 216.39C836.803 216.496 838.013 215.713 838.121 214.33ZM845.193 228.403L846.759 208.35L851.93 208.754L850.364 228.807L845.193 228.403ZM853.971 229.089L855.537 209.036L863.955 209.693C870.269 210.186 874.513 214.329 874.027 220.552C873.541 226.776 868.703 230.239 862.419 229.748L853.971 229.089ZM859.494 224.983L862.741 225.236C866.259 225.511 868.503 223.115 868.735 220.139C868.977 217.042 867.301 214.492 863.633 214.205L860.356 213.949L859.494 224.983ZM888.705 231.801L887.92 228.685L879.593 228.035L878.333 230.991L872.711 230.552L881.823 211.089L888.317 211.596L894.327 232.24L888.705 231.801ZM884.718 215.852L881.286 223.781L886.908 224.22L884.718 215.852ZM899.225 232.623L899.857 224.536L893.185 211.976L899.017 212.432L902.799 220.168L907.676 213.108L913.538 213.566L905.028 224.939L904.396 233.027L899.225 232.623Z" fill="white"/>
<path d="M1266.91 261.336L1268.48 241.283L1279.84 242.171C1283.81 242.481 1285.5 245.214 1285.31 247.74C1285.11 250.235 1283.45 251.799 1281.52 252.072C1283.63 252.569 1285.15 254.745 1284.95 257.27C1284.73 260.187 1282.58 262.559 1278.64 262.252L1266.91 261.336ZM1273.04 249.444L1278.06 249.836C1279.12 249.918 1279.9 249.223 1279.97 248.231C1280.05 247.239 1279.39 246.461 1278.33 246.378L1273.31 245.986L1273.04 249.444ZM1272.42 257.441L1277.62 257.847C1278.85 257.943 1279.66 257.25 1279.75 256.168C1279.83 255.146 1279.17 254.218 1277.91 254.119L1272.71 253.713L1272.42 257.441ZM1287.35 262.932L1288.91 242.879L1294.08 243.283L1292.87 258.826L1300.93 259.455L1300.57 263.965L1287.35 262.932ZM1317.12 265.257L1316.33 262.141L1308.01 261.49L1306.75 264.447L1301.12 264.008L1310.24 244.545L1316.73 245.052L1322.74 265.696L1317.12 265.257ZM1313.13 249.308L1309.7 257.237L1315.32 257.676L1313.13 249.308ZM1332.91 266.853C1326.89 266.383 1322.53 261.808 1323.01 255.645C1323.5 249.452 1328.51 245.639 1334.53 246.109C1339.52 246.498 1341.89 249.436 1343 252.185L1338.39 253.942C1337.85 252.297 1336.24 250.84 1334.17 250.678C1331.04 250.434 1328.53 252.779 1328.27 256.056C1328.02 259.333 1330.14 262.039 1333.26 262.283C1335.34 262.445 1337.15 261.256 1337.94 259.714L1342.22 262.166C1340.73 264.651 1337.9 267.243 1332.91 266.853ZM1355.85 268.282L1351.18 260.325L1349.7 261.903L1349.24 267.766L1344.07 267.362L1345.63 247.309L1350.81 247.713L1350.16 255.95L1356.97 248.194L1363.34 248.692L1354.82 257.464L1362.2 268.778L1355.85 268.282Z" fill="#030003"/>
<path d="M1375.09 269.785L1376.66 249.732L1391.36 250.88L1391.02 255.24L1381.49 254.495L1381.23 257.833L1390.55 258.56L1390.21 262.95L1380.89 262.222L1380.26 270.189L1375.09 269.785ZM1403.78 272.025L1400.94 264.968L1398.29 264.761L1397.76 271.555L1392.59 271.152L1394.16 251.099L1404.2 251.883C1408.65 252.231 1410.94 255.374 1410.65 259.102C1410.38 262.589 1408.1 264.287 1406.18 264.803L1409.7 272.488L1403.78 272.025ZM1405.4 258.631C1405.5 257.248 1404.43 256.287 1403.08 256.181L1398.99 255.862L1398.64 260.372L1402.73 260.691C1404.08 260.797 1405.29 260.014 1405.4 258.631ZM1412.47 272.704L1414.03 252.651L1419.21 253.055L1417.64 273.108L1412.47 272.704ZM1421.25 273.389L1422.81 253.337L1431.23 253.994C1437.54 254.487 1441.79 258.63 1441.3 264.853C1440.82 271.076 1435.98 274.54 1429.69 274.049L1421.25 273.389ZM1426.77 269.284L1430.02 269.537C1433.53 269.812 1435.78 267.416 1436.01 264.44C1436.25 261.343 1434.58 258.793 1430.91 258.506L1427.63 258.25L1426.77 269.284ZM1455.98 276.102L1455.2 272.986L1446.87 272.335L1445.61 275.292L1439.99 274.853L1449.1 255.39L1455.59 255.897L1461.6 276.541L1455.98 276.102ZM1451.99 260.153L1448.56 268.082L1454.18 268.521L1451.99 260.153ZM1466.5 276.924L1467.13 268.836L1460.46 256.277L1466.29 256.732L1470.07 264.469L1474.95 257.409L1480.81 257.866L1472.3 269.24L1471.67 277.328L1466.5 276.924Z" fill="white"/>
<defs>
<filter id="filter0_i_2_1331" x="-1397.42" y="1.93481" width="3413.52" height="343.892" filterUnits="userSpaceOnUse" color-interpolation-filters="sRGB">
<feFlood flood-opacity="0" result="BackgroundImageFix"/>
<feBlend mode="normal" in="SourceGraphic" in2="BackgroundImageFix" result="shape"/>
<feColorMatrix in="SourceAlpha" type="matrix" values="0 0 0 0 0 0 0 0 0 0 0 0 0 0 0 0 0 0 127 0" result="hardAlpha"/>
<feOffset/>
<feGaussianBlur stdDeviation="5.53879"/>
<feComposite in2="hardAlpha" operator="arithmetic" k2="-1" k3="1"/>
<feColorMatrix type="matrix" values="0 0 0 0 0 0 0 0 0 0 0 0 0 0 0 0 0 0 0.55 0"/>
<feBlend mode="normal" in2="shape" result="effect1_innerShadow_2_1331"/>
</filter>
</defs>
</svg>
