<svg width="227" height="194" viewBox="0 0 227 194" fill="none" xmlns="http://www.w3.org/2000/svg">
<path d="M46.6748 42.8758C45.5706 42.1875 44.556 41.6631 43.3549 41.1303C35.7752 37.9171 28.8569 40.4068 24.1068 48.0271C19.5507 55.3363 24.7636 66.0358 39.2569 79.0651C49.9561 88.6497 61.7776 96.1265 62.1917 96.3846C63.0198 96.9009 63.7658 96.934 64.0566 96.4674C64.3474 96.0009 63.9892 95.3457 63.1611 94.8295C63.023 94.7434 51.1531 87.3444 40.8679 78.0179C27.3819 65.8324 22.5608 56.3489 26.7293 49.6618C30.9462 42.8968 36.8835 40.4435 42.986 42.9518C47.839 45.0052 60.1493 53.5425 70.4777 89.241C70.6494 89.8879 71.4291 90.4818 72.2646 90.6787C73.1001 90.8756 73.529 90.4952 73.3573 89.8483C66.5823 65.9743 57.1645 49.4146 46.6748 42.8758Z" fill="white"/>
<path d="M188.283 166.098L85.6707 138.146C84.7627 137.898 84.0165 137.221 83.6429 136.457L62.7745 96.998C62.3532 96.3105 62.1515 95.4412 62.4277 94.6573C62.6273 93.8257 63.2572 93.1561 63.9447 92.7348L102.024 69.3071C102.76 68.8093 103.705 68.6553 104.613 68.9026L207.226 96.8548C208.965 97.3019 209.971 99.0971 209.524 100.837L192.389 163.771C191.818 165.539 190.023 166.545 188.283 166.098ZM76.5266 98.4532C77.1545 96.0826 75.7566 93.7241 73.4625 93.1439C71.092 92.5161 68.7334 93.914 68.1533 96.208C67.5254 98.5785 68.9233 100.937 71.2174 101.517C73.5114 102.097 75.9465 100.747 76.5266 98.4532Z" fill="#F03131"/>
<path d="M187.731 158.636C187.654 158.589 187.654 158.589 187.578 158.541C187.301 158.474 187.005 158.608 186.938 158.886L186.738 159.717L185.907 159.518C185.63 159.451 185.334 159.585 185.267 159.862C185.2 160.139 185.335 160.436 185.612 160.502L187.428 160.997L187.923 159.181C188.066 158.951 187.96 158.779 187.731 158.636Z" fill="#222222"/>
<path d="M202.434 104.706C202.357 104.659 202.357 104.659 202.281 104.611C202.003 104.545 201.707 104.679 201.641 104.956L200.899 107.68C200.832 107.957 200.966 108.253 201.244 108.32C201.521 108.386 201.817 108.252 201.883 107.975L202.625 105.251C202.721 105.098 202.663 104.85 202.434 104.706ZM200.997 110.078C200.921 110.031 200.921 110.031 200.844 109.983C200.567 109.916 200.271 110.051 200.204 110.328L199.462 113.052C199.396 113.329 199.53 113.625 199.807 113.692C200.084 113.758 200.38 113.624 200.447 113.347L201.189 110.623C201.284 110.47 201.227 110.221 200.997 110.078ZM199.513 115.527C199.436 115.479 199.436 115.479 199.36 115.431C199.083 115.365 198.787 115.499 198.72 115.776L197.978 118.5C197.912 118.778 198.046 119.074 198.323 119.14C198.6 119.207 198.896 119.073 198.963 118.795L199.705 116.071C199.848 115.842 199.666 115.622 199.513 115.527ZM198.076 120.899C198 120.851 198 120.851 197.923 120.803C197.646 120.737 197.35 120.871 197.284 121.148L196.542 123.872C196.475 124.15 196.609 124.446 196.886 124.512C197.164 124.579 197.46 124.445 197.526 124.167L198.268 121.443C198.364 121.29 198.229 120.994 198.076 120.899ZM196.64 126.271C196.563 126.223 196.563 126.223 196.487 126.175C196.21 126.109 195.914 126.243 195.847 126.52L195.105 129.244C195.039 129.521 195.173 129.818 195.45 129.884C195.727 129.951 196.023 129.817 196.09 129.539L196.832 126.815C196.851 126.614 196.793 126.366 196.64 126.271ZM195.079 131.671C195.003 131.624 195.003 131.624 194.926 131.576C194.649 131.509 194.353 131.644 194.286 131.921L193.544 134.645C193.478 134.922 193.612 135.218 193.889 135.285C194.166 135.351 194.462 135.217 194.529 134.94L195.271 132.216C195.414 131.986 195.309 131.814 195.079 131.671ZM193.643 137.043C193.566 136.996 193.566 136.996 193.49 136.948C193.213 136.881 192.917 137.016 192.85 137.293L192.108 140.017C192.041 140.294 192.175 140.59 192.453 140.657C192.73 140.723 193.026 140.589 193.092 140.312L193.835 137.588C193.93 137.435 193.872 137.186 193.643 137.043ZM192.159 142.492C192.082 142.444 192.082 142.444 192.006 142.396C191.728 142.33 191.432 142.464 191.366 142.741L190.624 145.465C190.557 145.743 190.691 146.039 190.968 146.105C191.246 146.172 191.542 146.038 191.608 145.76L192.35 143.036C192.493 142.807 192.388 142.635 192.159 142.492ZM190.722 147.864C190.646 147.816 190.646 147.816 190.569 147.768C190.292 147.702 189.996 147.836 189.929 148.113L189.187 150.837C189.121 151.115 189.255 151.411 189.532 151.477C189.809 151.544 190.105 151.41 190.172 151.132L190.914 148.408C191.009 148.255 190.875 147.959 190.722 147.864ZM189.286 153.236C189.209 153.188 189.209 153.188 189.133 153.14C188.855 153.074 188.559 153.208 188.493 153.485L187.751 156.209C187.684 156.486 187.818 156.783 188.095 156.849C188.373 156.916 188.669 156.782 188.735 156.504L189.477 153.78C189.496 153.579 189.439 153.331 189.286 153.236Z" fill="#222222"/>
<path d="M203.944 100.757L202.128 100.262C201.851 100.196 201.555 100.33 201.488 100.607C201.421 100.884 201.556 101.18 201.833 101.247L202.664 101.447L202.465 102.278C202.398 102.555 202.532 102.851 202.809 102.918C203.087 102.985 203.383 102.85 203.449 102.573L203.944 100.757Z" fill="#222222"/>
<path d="M199.631 99.6646C199.555 99.6169 199.555 99.6169 199.478 99.5692L196.831 98.8748C196.553 98.8082 196.257 98.9424 196.191 99.2196C196.124 99.4967 196.258 99.7928 196.535 99.8594L199.183 100.554C199.46 100.62 199.756 100.486 199.823 100.209C199.966 99.9795 199.861 99.8076 199.631 99.6646ZM194.46 98.2469C194.383 98.1993 194.383 98.1993 194.307 98.1516L191.659 97.4572C191.382 97.3906 191.086 97.5247 191.019 97.8019C190.953 98.0791 191.087 98.3752 191.364 98.4417L194.012 99.1361C194.289 99.2027 194.585 99.0686 194.652 98.7914C194.671 98.5907 194.613 98.3423 194.46 98.2469ZM189.212 96.7816C189.136 96.7339 189.136 96.7339 189.059 96.6863L186.412 95.9919C186.134 95.9253 185.838 96.0594 185.772 96.3366C185.705 96.6138 185.839 96.9099 186.116 96.9764L188.764 97.6708C189.041 97.7374 189.337 97.6033 189.404 97.3261C189.499 97.1731 189.442 96.9247 189.212 96.7816ZM184.041 95.364C183.964 95.3163 183.964 95.3163 183.888 95.2686L181.24 94.5742C180.963 94.5077 180.667 94.6418 180.6 94.919C180.534 95.1962 180.668 95.4922 180.945 95.5588L183.593 96.2532C183.87 96.3198 184.166 96.1856 184.233 95.9084C184.328 95.7554 184.194 95.4594 184.041 95.364ZM178.746 93.9752C178.669 93.9275 178.669 93.9275 178.593 93.8798L175.945 93.1854C175.668 93.1189 175.372 93.253 175.305 93.5302C175.238 93.8074 175.373 94.1034 175.65 94.17L178.298 94.8644C178.575 94.931 178.871 94.7968 178.937 94.5196C179.08 94.2901 178.975 94.1183 178.746 93.9752ZM173.574 92.5576C173.498 92.5099 173.498 92.5099 173.421 92.4622L170.774 91.7678C170.496 91.7012 170.2 91.8354 170.134 92.1125C170.067 92.3897 170.201 92.6858 170.479 92.7524L173.126 93.4468C173.403 93.5133 173.7 93.3792 173.766 93.102C173.909 92.8725 173.727 92.6529 173.574 92.5576ZM168.327 91.0923C168.25 91.0446 168.25 91.0446 168.174 90.9969L165.526 90.3025C165.249 90.2359 164.953 90.37 164.886 90.6472C164.819 90.9244 164.954 91.2205 165.231 91.287L167.879 91.9815C168.156 92.048 168.452 91.9139 168.518 91.6367C168.614 91.4837 168.556 91.2353 168.327 91.0923ZM163.155 89.6746C163.079 89.6269 163.079 89.627 163.002 89.5793L160.355 88.8848C160.077 88.8183 159.781 88.9524 159.715 89.2296C159.648 89.5068 159.782 89.8029 160.06 89.8694L162.707 90.5638C162.984 90.6304 163.281 90.4963 163.347 90.2191C163.442 90.0661 163.385 89.8177 163.155 89.6746ZM157.984 88.257C157.908 88.2093 157.908 88.2093 157.831 88.1616L155.183 87.4672C154.906 87.4007 154.61 87.5348 154.544 87.812C154.477 88.0892 154.611 88.3852 154.888 88.4518L157.536 89.1462C157.813 89.2127 158.109 89.0786 158.176 88.8014C158.195 88.6008 158.137 88.3524 157.984 88.257ZM152.689 86.8682C152.612 86.8205 152.612 86.8205 152.536 86.7728L149.888 86.0784C149.611 86.0118 149.315 86.146 149.248 86.4232C149.182 86.7004 149.316 86.9964 149.593 87.063L152.241 87.7574C152.518 87.8239 152.814 87.6898 152.88 87.4126C153.023 87.1831 152.918 87.0113 152.689 86.8682ZM147.517 85.4506C147.441 85.4029 147.441 85.4029 147.364 85.3552L144.717 84.6608C144.44 84.5942 144.143 84.7284 144.077 85.0055C144.01 85.2827 144.144 85.5788 144.422 85.6454L147.069 86.3398C147.347 86.4063 147.643 86.2722 147.709 85.995C147.805 85.842 147.67 85.5459 147.517 85.4506ZM142.27 83.9852C142.193 83.9376 142.193 83.9376 142.117 83.8899L139.469 83.1955C139.192 83.1289 138.896 83.263 138.829 83.5402C138.763 83.8174 138.897 84.1135 139.174 84.18L141.822 84.8745C142.099 84.941 142.395 84.8069 142.461 84.5297C142.557 84.3767 142.499 84.1283 142.27 83.9852ZM137.098 82.5676C137.022 82.5199 137.022 82.5199 136.945 82.4722L134.298 81.7779C134.021 81.7113 133.724 81.8454 133.658 82.1226C133.591 82.3998 133.725 82.6959 134.003 82.7624L136.65 83.4568C136.928 83.5234 137.224 83.3893 137.29 83.1121C137.386 82.9591 137.251 82.663 137.098 82.5676ZM131.803 81.1788C131.726 81.1311 131.726 81.1311 131.65 81.0834L129.002 80.389C128.725 80.3225 128.429 80.4566 128.362 80.7338C128.296 81.011 128.43 81.307 128.707 81.3736L131.355 82.068C131.632 82.1346 131.928 82.0004 131.995 81.7232C132.138 81.4937 132.032 81.3219 131.803 81.1788ZM126.632 79.7612C126.555 79.7135 126.555 79.7135 126.479 79.6658L123.831 78.9714C123.554 78.9049 123.258 79.039 123.191 79.3162C123.125 79.5934 123.259 79.8894 123.536 79.956L126.184 80.6504C126.461 80.7169 126.757 80.5828 126.824 80.3056C126.967 80.0761 126.861 79.9042 126.632 79.7612ZM121.461 78.3436C121.384 78.2959 121.384 78.2959 121.307 78.2482L118.66 77.5538C118.383 77.4872 118.087 77.6213 118.02 77.8985C117.953 78.1757 118.088 78.4718 118.365 78.5384L121.012 79.2328C121.29 79.2993 121.586 79.1652 121.652 78.888C121.671 78.6873 121.614 78.4389 121.461 78.3436ZM116.213 76.8783C116.136 76.8306 116.136 76.8306 116.06 76.7829L113.412 76.0885C113.135 76.0219 112.839 76.156 112.772 76.4332C112.706 76.7104 112.84 77.0065 113.117 77.073L115.765 77.7674C116.042 77.834 116.338 77.6999 116.405 77.4227C116.5 77.2697 116.442 77.0213 116.213 76.8783ZM111.042 75.4606C110.965 75.4129 110.965 75.4129 110.889 75.3652L108.241 74.6708C107.964 74.6043 107.668 74.7384 107.601 75.0156C107.534 75.2928 107.669 75.5889 107.946 75.6554L110.593 76.3498C110.871 76.4164 111.167 76.2822 111.233 76.0051C111.329 75.8521 111.195 75.556 111.042 75.4606Z" fill="#222222"/>
<path d="M105.748 74.0691C105.672 74.0215 105.672 74.0214 105.595 73.9738L103.779 73.479L103.284 75.2952C103.218 75.5724 103.352 75.8684 103.629 75.935C103.906 76.0015 104.202 75.8674 104.269 75.5902L104.468 74.7586L105.3 74.9583C105.577 75.0249 105.873 74.8908 105.94 74.6136C106.083 74.3841 105.978 74.2122 105.748 74.0691Z" fill="#222222"/>
<path d="M103.381 77.6947C103.304 77.647 103.304 77.647 103.228 77.5994C102.951 77.5328 102.655 77.6669 102.588 77.9441L101.846 80.6683C101.779 80.9455 101.914 81.2416 102.191 81.3082C102.468 81.3747 102.764 81.2406 102.831 80.9634L103.573 78.2392C103.668 78.0862 103.61 77.8378 103.381 77.6947ZM101.944 83.0667C101.868 83.019 101.868 83.019 101.791 82.9713C101.514 82.9047 101.218 83.0389 101.152 83.3161L100.41 86.0403C100.343 86.3175 100.477 86.6135 100.754 86.6801C101.031 86.7466 101.328 86.6125 101.394 86.3353L102.136 83.6111C102.232 83.4581 102.097 83.162 101.944 83.0667ZM100.46 88.5151C100.384 88.4674 100.384 88.4674 100.307 88.4197C100.03 88.3532 99.734 88.4873 99.6674 88.7645L98.9253 91.4887C98.8588 91.7659 98.9929 92.062 99.2701 92.1285C99.5473 92.1951 99.8434 92.0609 99.9099 91.7838L100.652 89.0595C100.795 88.83 100.613 88.6105 100.46 88.5151ZM99.0238 93.887C98.9473 93.8393 98.9472 93.8393 98.8707 93.7917C98.5936 93.7251 98.2975 93.8592 98.2309 94.1364L97.4888 96.8606C97.4223 97.1378 97.5564 97.4339 97.8336 97.5005C98.1108 97.567 98.4069 97.4329 98.4734 97.1557L99.2155 94.4315C99.2344 94.2308 99.1768 93.9824 99.0238 93.887ZM97.4631 99.2878C97.3866 99.2401 97.3866 99.2401 97.3101 99.1924C97.0329 99.1258 96.7368 99.26 96.6703 99.5372L95.9282 102.261C95.8616 102.539 95.9957 102.835 96.2729 102.901C96.5501 102.968 96.8462 102.834 96.9127 102.556L97.6548 99.8322C97.7979 99.6027 97.6926 99.4308 97.4631 99.2878ZM96.0266 104.66C95.9501 104.612 95.9501 104.612 95.8736 104.564C95.5964 104.498 95.3003 104.632 95.2338 104.909L94.4917 107.633C94.4251 107.911 94.5592 108.207 94.8364 108.273C95.1136 108.34 95.4097 108.206 95.4762 107.928L96.2183 105.204C96.3137 105.051 96.2561 104.803 96.0266 104.66ZM94.5901 110.032C94.5136 109.984 94.5136 109.984 94.4371 109.936C94.1599 109.87 93.8638 110.004 93.7973 110.281L93.0552 113.005C92.9886 113.282 93.1227 113.578 93.3999 113.645C93.6771 113.712 93.9732 113.578 94.0397 113.3L94.7818 110.576C94.8772 110.423 94.7431 110.127 94.5901 110.032ZM93.1059 115.48C93.0294 115.432 93.0294 115.432 92.9529 115.385C92.6757 115.318 92.3796 115.452 92.3131 115.729L91.571 118.454C91.5044 118.731 91.6386 119.027 91.9157 119.093C92.1929 119.16 92.489 119.026 92.5556 118.749L93.2977 116.025C93.4407 115.795 93.2589 115.575 93.1059 115.48ZM91.6694 120.852C91.5929 120.804 91.5929 120.804 91.5164 120.757C91.2392 120.69 90.9431 120.824 90.8766 121.101L90.1345 123.826C90.0679 124.103 90.202 124.399 90.4792 124.465C90.7564 124.532 91.0525 124.398 91.119 124.121L91.8611 121.396C91.88 121.196 91.8224 120.947 91.6694 120.852ZM90.1564 126.176C90.0799 126.129 90.0799 126.129 90.0034 126.081C89.7262 126.014 89.4301 126.148 89.3636 126.426L88.6215 129.15C88.5549 129.427 88.6891 129.723 88.9662 129.79C89.2434 129.856 89.5395 129.722 89.6061 129.445L90.3482 126.721C90.4435 126.568 90.3859 126.319 90.1564 126.176Z" fill="#222222"/>
<path d="M88.6776 131.625C88.6011 131.577 88.6011 131.577 88.5246 131.529C88.2474 131.463 87.9513 131.597 87.8848 131.874L87.39 133.69L89.2062 134.185C89.4834 134.251 89.7794 134.117 89.846 133.84C89.9126 133.563 89.7784 133.267 89.5012 133.2L88.6697 133.001L88.8693 132.169C89.0124 131.94 88.9071 131.768 88.6776 131.625Z" fill="#222222"/>
<path d="M183.533 158.888C183.456 158.84 183.456 158.84 183.38 158.792L180.732 158.098C180.455 158.031 180.159 158.166 180.092 158.443C180.026 158.72 180.16 159.016 180.437 159.083L183.085 159.777C183.362 159.843 183.658 159.709 183.725 159.432C183.743 159.231 183.686 158.983 183.533 158.888ZM178.285 157.422C178.208 157.375 178.209 157.375 178.132 157.327L175.484 156.633C175.207 156.566 174.911 156.7 174.844 156.977C174.778 157.255 174.912 157.551 175.189 157.617L177.837 158.312C178.114 158.378 178.41 158.244 178.477 157.967C178.572 157.814 178.515 157.565 178.285 157.422ZM173.114 156.005C173.037 155.957 173.037 155.957 172.961 155.909L170.313 155.215C170.036 155.148 169.74 155.283 169.673 155.56C169.607 155.837 169.741 156.133 170.018 156.2L172.666 156.894C172.943 156.961 173.239 156.826 173.306 156.549C173.401 156.396 173.267 156.1 173.114 156.005ZM167.818 154.616C167.742 154.568 167.742 154.568 167.665 154.521L165.018 153.826C164.74 153.76 164.444 153.894 164.378 154.171C164.311 154.448 164.445 154.744 164.723 154.811L167.37 155.505C167.647 155.572 167.944 155.438 168.01 155.16C168.153 154.931 168.048 154.759 167.818 154.616ZM162.647 153.198C162.571 153.151 162.571 153.151 162.494 153.103L159.846 152.409C159.569 152.342 159.273 152.476 159.207 152.753C159.14 153.031 159.274 153.327 159.551 153.393L162.199 154.088C162.476 154.154 162.772 154.02 162.839 153.743C162.934 153.59 162.8 153.294 162.647 153.198ZM157.399 151.733C157.323 151.685 157.323 151.685 157.246 151.638L154.599 150.943C154.321 150.877 154.025 151.011 153.959 151.288C153.892 151.565 154.026 151.861 154.304 151.928L156.951 152.622C157.228 152.689 157.525 152.555 157.591 152.277C157.686 152.124 157.629 151.876 157.399 151.733ZM152.228 150.315C152.152 150.268 152.152 150.268 152.075 150.22L149.427 149.526C149.15 149.459 148.854 149.593 148.788 149.87C148.721 150.148 148.855 150.444 149.132 150.51L151.78 151.205C152.057 151.271 152.353 151.137 152.42 150.86C152.515 150.707 152.458 150.458 152.228 150.315ZM147.009 148.974C146.933 148.927 146.933 148.927 146.856 148.879L144.208 148.184C143.931 148.118 143.635 148.252 143.569 148.529C143.502 148.806 143.636 149.103 143.913 149.169L146.561 149.863C146.838 149.93 147.134 149.796 147.201 149.519C147.267 149.242 147.162 149.07 147.009 148.974ZM141.761 147.509C141.685 147.461 141.685 147.461 141.608 147.414L138.961 146.719C138.684 146.653 138.387 146.787 138.321 147.064C138.254 147.341 138.388 147.637 138.666 147.704L141.313 148.398C141.591 148.465 141.887 148.331 141.953 148.053C142.096 147.824 141.991 147.652 141.761 147.509ZM136.59 146.091C136.514 146.044 136.514 146.044 136.437 145.996L133.789 145.302C133.512 145.235 133.216 145.369 133.15 145.646C133.083 145.924 133.217 146.22 133.494 146.286L136.142 146.981C136.419 147.047 136.715 146.913 136.782 146.636C136.877 146.483 136.743 146.187 136.59 146.091ZM131.342 144.626C131.266 144.578 131.266 144.578 131.189 144.531L128.542 143.836C128.265 143.77 127.968 143.904 127.902 144.181C127.835 144.458 127.969 144.754 128.247 144.821L130.894 145.515C131.172 145.582 131.468 145.448 131.534 145.17C131.63 145.017 131.572 144.769 131.342 144.626ZM126.171 143.208C126.095 143.161 126.095 143.161 126.018 143.113L123.37 142.419C123.093 142.352 122.797 142.486 122.731 142.763C122.664 143.041 122.798 143.337 123.075 143.403L125.723 144.098C126 144.164 126.296 144.03 126.363 143.753C126.458 143.6 126.324 143.304 126.171 143.208ZM120.876 141.82C120.799 141.772 120.799 141.772 120.723 141.724L118.075 141.03C117.798 140.963 117.502 141.097 117.435 141.375C117.369 141.652 117.503 141.948 117.78 142.014L120.428 142.709C120.705 142.775 121.001 142.641 121.068 142.364C121.211 142.135 121.105 141.963 120.876 141.82ZM115.705 140.402C115.628 140.354 115.628 140.354 115.552 140.307L112.904 139.612C112.627 139.546 112.331 139.68 112.264 139.957C112.197 140.234 112.332 140.53 112.609 140.597L115.256 141.291C115.534 141.358 115.83 141.224 115.896 140.946C116.039 140.717 115.858 140.497 115.705 140.402ZM110.533 138.984C110.457 138.937 110.457 138.937 110.38 138.889L107.733 138.195C107.455 138.128 107.159 138.262 107.093 138.539C107.026 138.816 107.16 139.113 107.438 139.179L110.085 139.874C110.362 139.94 110.658 139.806 110.725 139.529C110.744 139.328 110.686 139.08 110.533 138.984ZM105.286 137.519C105.209 137.471 105.209 137.471 105.133 137.424L102.485 136.729C102.208 136.663 101.912 136.797 101.845 137.074C101.778 137.351 101.913 137.647 102.19 137.714L104.837 138.408C105.115 138.475 105.411 138.341 105.477 138.063C105.573 137.91 105.515 137.662 105.286 137.519ZM100.067 136.178C99.9901 136.13 99.9901 136.13 99.9136 136.083L97.2659 135.388C96.9887 135.322 96.6926 135.456 96.6261 135.733C96.5595 136.01 96.6936 136.306 96.9708 136.373L99.6185 137.067C99.8957 137.134 100.192 137 100.258 136.722C100.401 136.493 100.22 136.273 100.067 136.178ZM94.8189 134.713C94.7424 134.665 94.7423 134.665 94.6658 134.617L92.0181 133.923C91.7409 133.856 91.4449 133.99 91.3783 134.268C91.3118 134.545 91.4459 134.841 91.7231 134.907L94.3708 135.602C94.648 135.668 94.9441 135.534 95.0106 135.257C95.1537 135.028 95.0484 134.856 94.8189 134.713Z" fill="#222222"/>
<path d="M132.462 106.446L125.822 104.663L123.536 107.464L122.225 107.112L130.874 96.655L132.117 96.9888L134.366 110.371L133.038 110.015L132.462 106.446ZM132.277 105.301L131.135 98.1308L126.556 103.765L132.277 105.301ZM140.683 107.795L138.639 107.247L137.57 111.231L136.361 110.907L138.765 101.95L139.974 102.275L138.918 106.208L140.979 106.761L145.185 103.674L146.496 104.026L141.806 107.421L144.347 113.051L142.917 112.667L140.683 107.795ZM155.87 115.013L154.983 118.316L153.842 118.01L154.445 115.762L146.255 113.563L148.66 104.607L149.869 104.931L147.747 112.832L153.213 114.3L155.335 106.399L156.544 106.723L154.422 114.624L155.87 115.013ZM160.3 107.732L161.509 108.056L159.104 117.013L157.895 116.688L160.3 107.732ZM161.439 105.938C161.189 105.871 161.002 105.729 160.877 105.513C160.753 105.297 160.722 105.07 160.786 104.832C160.847 104.605 160.986 104.429 161.202 104.304C161.418 104.18 161.651 104.151 161.9 104.218C162.15 104.285 162.337 104.427 162.462 104.643C162.589 104.847 162.623 105.063 162.562 105.29C162.495 105.54 162.353 105.727 162.137 105.852C161.921 105.976 161.688 106.005 161.439 105.938ZM171.835 110.829L169.431 119.785L168.324 119.488L169.119 116.525L166.31 115.771L165.969 115.68L163.096 118.085L161.785 117.733L164.857 115.198C164.216 114.82 163.771 114.347 163.521 113.781C163.272 113.215 163.243 112.575 163.435 111.859C163.703 110.86 164.248 110.191 165.069 109.852C165.89 109.513 166.891 109.501 168.072 109.818L171.835 110.829ZM164.652 112.223C164.295 113.551 164.963 114.442 166.654 114.896L169.361 115.623L170.44 111.604L167.818 110.9C166.07 110.431 165.014 110.872 164.652 112.223ZM120.462 127.25L119.598 130.468L118.457 130.162L119.038 128L111.017 125.846L110.437 128.009L109.296 127.703L110.16 124.484L110.671 124.621C111.282 124.749 111.809 124.416 112.253 123.622C112.698 122.829 113.165 121.677 113.656 120.165L114.58 117.2L121.187 118.974L119.066 126.875L120.462 127.25ZM114.745 120.531C114.347 121.787 113.957 122.808 113.575 123.594C113.197 124.369 112.762 124.854 112.271 125.051L117.857 126.551L119.69 119.722L115.382 118.566L114.745 120.531ZM126.207 130.016C125.344 129.784 124.618 129.382 124.029 128.81C123.444 128.227 123.045 127.536 122.834 126.737C122.622 125.938 122.634 125.101 122.868 124.227C123.103 123.353 123.512 122.623 124.095 122.037C124.679 121.451 125.368 121.058 126.164 120.858C126.96 120.658 127.79 120.674 128.653 120.906C129.515 121.137 130.241 121.539 130.83 122.111C131.419 122.683 131.813 123.367 132.013 124.163C132.225 124.962 132.213 125.799 131.978 126.673C131.744 127.547 131.335 128.277 130.752 128.863C130.18 129.451 129.494 129.852 128.695 130.063C127.899 130.263 127.069 130.247 126.207 130.016ZM126.495 128.943C127.13 129.114 127.736 129.124 128.312 128.974C128.902 128.816 129.41 128.509 129.838 128.051C130.265 127.594 130.57 127.025 130.752 126.344C130.935 125.662 130.956 125.017 130.816 124.407C130.675 123.798 130.388 123.282 129.953 122.861C129.533 122.432 129.005 122.132 128.369 121.961C127.733 121.791 127.121 121.784 126.53 121.942C125.955 122.092 125.448 122.394 125.009 122.848C124.582 123.306 124.277 123.875 124.094 124.556C123.912 125.237 123.89 125.883 124.031 126.492C124.183 127.105 124.469 127.626 124.889 128.055C125.324 128.476 125.859 128.772 126.495 128.943ZM142.863 127.094C144.094 127.498 144.95 128.093 145.433 128.879C145.93 129.658 146.047 130.535 145.785 131.511C145.602 132.193 145.274 132.756 144.802 133.201C144.333 133.635 143.733 133.918 143.004 134.051C142.274 134.183 141.444 134.125 140.514 133.875C139.651 133.643 138.87 133.288 138.171 132.808C137.487 132.32 136.974 131.781 136.634 131.19L137.49 130.38C137.778 130.895 138.216 131.372 138.804 131.81C139.396 132.236 140.066 132.55 140.815 132.751C141.792 133.013 142.603 133.006 143.249 132.729C143.898 132.441 144.324 131.922 144.525 131.173C144.723 130.435 144.612 129.785 144.191 129.221C143.77 128.658 143.02 128.232 141.942 127.942L141.091 127.714L141.333 126.811L145.747 123.56L139.651 121.924L139.944 120.834L147.606 122.891L147.373 123.759L142.863 127.094ZM151.317 136.775C150.397 136.529 149.64 136.064 149.044 135.38C148.46 134.7 148.086 133.851 147.921 132.833C147.771 131.807 147.861 130.675 148.194 129.438C148.526 128.201 149.013 127.181 149.654 126.38C150.309 125.57 151.06 125.017 151.906 124.721C152.764 124.428 153.652 124.405 154.572 124.652C155.492 124.898 156.243 125.362 156.827 126.042C157.423 126.725 157.802 127.582 157.963 128.611C158.128 129.629 158.045 130.756 157.712 131.994C157.38 133.231 156.886 134.255 156.231 135.064C155.578 135.863 154.823 136.409 153.966 136.702C153.119 136.998 152.236 137.022 151.317 136.775ZM151.619 135.652C152.311 135.838 152.97 135.808 153.596 135.562C154.233 135.319 154.798 134.868 155.292 134.21C155.785 133.551 156.172 132.7 156.452 131.655C156.733 130.611 156.824 129.68 156.727 128.863C156.63 128.046 156.367 127.373 155.937 126.844C155.518 126.317 154.963 125.961 154.27 125.775C153.578 125.59 152.913 125.618 152.276 125.861C151.65 126.106 151.09 126.559 150.597 127.217C150.104 127.876 149.717 128.727 149.437 129.772C149.156 130.816 149.065 131.747 149.162 132.564C149.259 133.381 149.517 134.053 149.935 134.579C150.365 135.108 150.926 135.466 151.619 135.652ZM158.582 138.708C158.332 138.641 158.141 138.492 158.008 138.262C157.886 138.034 157.861 137.79 157.931 137.529C158.001 137.268 158.144 137.075 158.36 136.95C158.59 136.817 158.83 136.785 159.08 136.852C159.33 136.919 159.521 137.067 159.654 137.298C159.79 137.517 159.823 137.757 159.753 138.018C159.683 138.279 159.532 138.476 159.302 138.609C159.072 138.742 158.831 138.775 158.582 138.708ZM167.598 128.258L164.397 140.178L163.171 139.849L166.079 129.019L163.269 128.265L163.562 127.175L167.598 128.258ZM173.75 129.91L170.55 141.83L169.324 141.501L172.232 130.671L169.422 129.916L169.715 128.827L173.75 129.91Z" fill="#0E0E0E"/>
<path d="M69.3909 98.1464C69.3144 98.0988 69.2379 98.0511 69.2379 98.0511C68.8077 97.8891 68.2156 98.1574 68.1302 98.6353C67.9682 99.0655 67.4536 100.232 66.5366 100.51C65.9157 100.654 65.2083 100.426 64.2615 99.7292C63.8502 99.3666 63.3534 99.4818 62.9908 99.8932C62.6758 100.228 62.7434 100.801 63.1547 101.164C64.5129 102.223 65.8511 102.632 67.0165 102.296C68.9747 101.711 69.8033 99.3595 69.7744 99.2353C69.9364 98.8051 69.7734 98.3849 69.3909 98.1464Z" fill="white"/>
<path d="M68.7059 90.3874C68.0939 90.0059 67.31 89.7297 66.3543 89.5589C65.8764 89.4734 65.4373 89.8371 65.3518 90.315C65.2664 90.7928 65.63 91.232 66.1079 91.3174C68.8699 91.6581 69.3697 94.0942 69.3697 94.0942C69.4849 94.5909 69.9439 94.8771 70.393 94.8383C70.8897 94.723 71.1759 94.264 71.1371 93.815C70.9831 92.8692 70.2359 91.3411 68.7059 90.3874Z" fill="white"/>
</svg>
