<svg width="57" height="57" viewBox="0 0 57 57" fill="none" xmlns="http://www.w3.org/2000/svg">
<path d="M55.4122 48.5432L42.3635 35.4936C44.5806 31.9639 45.8673 27.7921 45.8673 23.315C45.8673 10.6486 35.5991 0.381836 22.9332 0.381836C10.2673 0.381836 0 10.6486 0 23.315C0 35.9819 10.2668 46.2477 22.9332 46.2477C27.8055 46.2477 32.3184 44.7245 36.032 42.1361L48.9253 55.0304C49.8212 55.9254 50.9957 56.3712 52.1687 56.3712C53.3432 56.3712 54.5163 55.9254 55.4136 55.0304C57.204 53.2382 57.204 50.335 55.4122 48.5432ZM22.9332 38.8177C14.3722 38.8177 7.43145 31.8775 7.43145 23.316C7.43145 14.7545 14.3722 7.81376 22.9332 7.81376C31.4947 7.81376 38.4349 14.7545 38.4349 23.316C38.4349 31.8775 31.4947 38.8177 22.9332 38.8177Z" fill="#2EDBCA"/>
<rect x="12.8594" y="17.8281" width="18.0469" height="4.39258" rx="2.19629" fill="#2EDBCA"/>
<rect x="21.8828" y="26.2734" width="12.5703" height="4.20508" rx="2.10254" fill="#2EDBCA"/>
</svg>
