<svg width="65" height="64" viewBox="0 0 65 64" fill="none" xmlns="http://www.w3.org/2000/svg">
<g clip-path="url(#clip0_2_1470)">
<path d="M60.185 18.9172C60.185 17.8584 59.9594 16.9037 59.4907 16.1052C59.0394 15.3067 58.3624 14.6471 57.4598 14.1264C49.961 9.80412 42.4448 5.48194 34.946 1.15968C32.9151 -0.00334573 30.9709 0.0313855 28.9574 1.21174C25.9717 2.96498 11.0088 11.54 6.56512 14.1264C4.72509 15.1852 3.83984 16.8169 3.83984 18.9347V45.0416C3.83984 46.0831 4.06549 47.003 4.49945 47.8016C4.95081 48.6174 5.64514 49.3117 6.56512 49.8498C11.0262 52.4362 25.9717 60.9939 28.9574 62.7645C30.9709 63.9446 32.9324 63.9967 34.946 62.8165C42.4448 58.4769 49.961 54.1721 57.4598 49.8498C58.3971 49.3117 59.0741 48.6347 59.5254 47.8016C59.9594 47.003 60.185 46.0831 60.185 45.0416V18.9172Z" fill="#9A4993"/>
<path d="M32.082 31.8848L4.46484 47.785C4.91621 48.6008 5.61054 49.2952 6.53052 49.8333C10.9916 52.4197 25.9371 60.9773 28.9228 62.7479C30.9363 63.9283 32.8979 63.9804 34.9114 62.7999C42.4102 58.4604 49.9264 54.1555 57.4252 49.8333C58.3625 49.2952 59.0395 48.6182 59.4908 47.785L32.082 31.8848Z" fill="#6A1577"/>
<path d="M23.9062 36.5888C25.5206 39.4009 28.5409 41.293 31.9953 41.293C35.4843 41.293 38.522 39.3836 40.119 36.5368L32.0821 31.8848L23.9062 36.5888Z" fill="#6A1577"/>
<path d="M60.1852 18.9156C60.1852 17.8568 59.9595 16.902 59.4909 16.1035L32.082 31.8823L59.5255 47.7826C59.9595 46.984 60.1852 46.0641 60.1852 45.0226V18.9156Z" fill="#813084"/>
<path d="M40.1189 36.5295C38.522 39.3589 35.4843 41.2857 31.9952 41.2857C28.5236 41.2857 25.5033 39.3936 23.9063 36.5815C23.1251 35.2103 22.6738 33.648 22.6738 31.9642C22.6738 26.8088 26.8398 22.6428 31.9952 22.6428C35.4322 22.6428 38.4352 24.5175 40.0495 27.2948L48.1906 22.6081C44.9446 17.0187 38.9038 13.252 31.9779 13.252C21.6323 13.252 13.2656 21.636 13.2656 31.9642C13.2656 35.3491 14.1682 38.5431 15.7479 41.2857C18.9765 46.8924 25.0519 50.6765 31.9952 50.6765C38.956 50.6765 45.0314 46.8751 48.26 41.2336L40.1189 36.5295ZM50.4124 27.5379H48.555V36.5121H50.4124V27.5379ZM54.5263 27.5379H52.669V36.5121H54.5263V27.5379Z" fill="white"/>
<path d="M56.0368 29.0488H47.0625V30.9062H56.0368V29.0488ZM56.0368 33.1454H47.0625V35.0027H56.0368V33.1454Z" fill="white"/>
</g>
<defs>
<clipPath id="clip0_2_1470">
<rect width="64" height="64" fill="white" transform="translate(0.0117188 -0.00585938)"/>
</clipPath>
</defs>
</svg>
