<svg aria-hidden="true" style="position: absolute; width: 0; height: 0; overflow: hidden;" version="1.1" xmlns="http://www.w3.org/2000/svg" xmlns:xlink="http://www.w3.org/1999/xlink">
  <defs>
    <symbol id="icon-CBS-logo" viewBox="0 0 138 32">
      <path fill="#fff" style="fill: var(--color2, #fff)" d="M8.196 24.761l-1.806 0.397c-0.148-0.397-0.52-0.595-1.138-0.595-0.421 0-0.643 0.124-0.643 0.372 0 0.223 0.198 0.347 0.619 0.422 0.841 0.149 1.435 0.298 1.782 0.471s0.619 0.397 0.792 0.67 0.272 0.571 0.272 0.918c0 0.62-0.247 1.141-0.767 1.563s-1.287 0.62-2.351 0.62c-0.767 0-1.46-0.149-2.029-0.447s-0.94-0.769-1.089-1.365l1.905-0.273c0.148 0.447 0.569 0.67 1.287 0.67 0.272 0 0.47-0.050 0.619-0.124 0.124-0.074 0.198-0.174 0.198-0.273s-0.050-0.174-0.124-0.223c-0.099-0.050-0.322-0.099-0.668-0.198-0.718-0.174-1.213-0.298-1.534-0.422-0.297-0.124-0.569-0.323-0.767-0.62s-0.322-0.596-0.322-0.968c0-0.62 0.247-1.141 0.742-1.538s1.163-0.595 2.004-0.595c0.767 0 1.435 0.149 1.98 0.447 0.544 0.273 0.891 0.645 1.039 1.092z"></path>
      <path fill="#fff" style="fill: var(--color2, #fff)" d="M21.187 23.346l-2.92 6.203c-0.421 0.918-0.866 1.489-1.312 1.737s-0.99 0.372-1.608 0.372c-0.322 0-0.643-0.025-0.965-0.099v-1.638c0.52 0.050 0.891 0.074 1.138 0.074 0.619 0 0.94-0.174 0.94-0.496 0-0.074-0.025-0.223-0.074-0.397l-1.485-5.732h2.425l0.52 2.456c0.099 0.422 0.148 0.67 0.148 0.794 0.050-0.074 0.074-0.174 0.148-0.298 0.049-0.124 0.099-0.223 0.148-0.347l1.213-2.581h1.683v-0.050z"></path>
      <path fill="#fff" style="fill: var(--color2, #fff)" d="M33.015 24.761l-1.806 0.397c-0.148-0.397-0.52-0.596-1.138-0.596-0.421 0-0.643 0.124-0.643 0.372 0 0.223 0.198 0.347 0.619 0.422 0.841 0.149 1.435 0.298 1.782 0.471s0.619 0.397 0.792 0.67c0.173 0.273 0.272 0.571 0.272 0.918 0 0.62-0.248 1.141-0.767 1.563s-1.287 0.62-2.351 0.62c-0.767 0-1.46-0.149-2.029-0.447s-0.94-0.769-1.089-1.365l1.905-0.273c0.148 0.447 0.569 0.67 1.287 0.67 0.272 0 0.47-0.050 0.619-0.124 0.124-0.074 0.198-0.174 0.198-0.273s-0.049-0.174-0.124-0.223c-0.099-0.050-0.322-0.099-0.668-0.198-0.718-0.174-1.213-0.298-1.534-0.422-0.297-0.124-0.569-0.323-0.767-0.62s-0.322-0.595-0.322-0.968c0-0.62 0.247-1.141 0.742-1.538s1.163-0.595 2.005-0.595c0.767 0 1.435 0.149 1.98 0.447 0.544 0.273 0.891 0.645 1.039 1.092z"></path>
      <path fill="#fff" style="fill: var(--color2, #fff)" d="M44.2 23.345l-0.272 1.563h-1.114l-0.371 2.184c-0.025 0.223-0.050 0.347-0.050 0.397 0 0.298 0.198 0.447 0.569 0.447 0.173 0 0.346-0.025 0.569-0.074l-0.272 1.588c-0.445 0.099-0.841 0.149-1.262 0.149-0.495 0-0.866-0.074-1.114-0.199s-0.445-0.298-0.594-0.521-0.223-0.521-0.223-0.918c0-0.149 0.025-0.447 0.099-0.893l0.371-2.184h-0.841l0.247-1.563h0.841l0.346-1.811 2.202-0.050-0.322 1.861h1.188v0.025z"></path>
      <path fill="#fff" style="fill: var(--color2, #fff)" d="M56.997 26.845h-4.207c-0.025 0.174-0.025 0.298-0.025 0.372 0 0.273 0.075 0.471 0.248 0.62s0.396 0.223 0.644 0.223c0.495 0 0.841-0.248 1.039-0.769l2.054 0.323c-0.272 0.596-0.693 1.092-1.287 1.464s-1.262 0.546-1.98 0.546c-0.915 0-1.658-0.248-2.202-0.769-0.569-0.521-0.841-1.216-0.841-2.134 0-0.968 0.346-1.811 1.014-2.506s1.534-1.042 2.623-1.042c0.916 0 1.634 0.273 2.178 0.819s0.817 1.265 0.817 2.159c0 0.198-0.025 0.447-0.074 0.695zM54.794 25.679c0.025-0.124 0.025-0.223 0.025-0.298 0-0.223-0.075-0.397-0.198-0.571s-0.322-0.248-0.569-0.248c-0.248 0-0.495 0.099-0.693 0.298s-0.346 0.472-0.396 0.819h1.831z"></path>
      <path fill="#fff" style="fill: var(--color2, #fff)" d="M64.719 23.347h2.079l-0.149 0.943c0.445-0.744 1.089-1.117 1.881-1.117 0.767 0 1.287 0.372 1.559 1.117 0.396-0.719 1.015-1.092 1.831-1.092 0.545 0 0.965 0.149 1.287 0.447s0.494 0.72 0.494 1.241c0 0.174-0.024 0.372-0.049 0.595l-0.668 3.97h-2.326l0.619-3.623c0.025-0.174 0.050-0.323 0.050-0.422 0-0.347-0.173-0.521-0.495-0.521-0.198 0-0.371 0.074-0.495 0.223s-0.223 0.447-0.297 0.868l-0.594 3.499h-2.252l0.619-3.623c0.025-0.223 0.050-0.372 0.050-0.471 0-0.174-0.050-0.323-0.149-0.397s-0.223-0.124-0.321-0.124c-0.124 0-0.248 0.050-0.421 0.149s-0.297 0.372-0.371 0.844l-0.619 3.623h-2.252l0.989-6.129z"></path>
      <path fill="#fff" style="fill: var(--color2, #fff)" d="M86.669 29.449h-2.4c0-0.124-0.025-0.223-0.025-0.273 0-0.199 0.025-0.447 0.050-0.72-0.47 0.769-1.138 1.166-2.004 1.166-0.569 0-1.039-0.174-1.41-0.496-0.347-0.347-0.545-0.744-0.545-1.265 0-0.372 0.099-0.719 0.297-1.042s0.47-0.571 0.817-0.744c0.346-0.174 0.718-0.298 1.089-0.372 0.371-0.050 1.089-0.149 2.178-0.248 0.049-0.149 0.074-0.273 0.074-0.347 0-0.347-0.223-0.496-0.693-0.496s-0.792 0.223-1.015 0.695l-1.979-0.397c0.495-1.141 1.608-1.712 3.316-1.712 0.866 0 1.534 0.149 2.054 0.447s0.742 0.744 0.742 1.34c0 0.273-0.149 1.191-0.445 2.779-0.099 0.595-0.173 0.993-0.173 1.191 0 0.124 0.024 0.298 0.073 0.496zM84.516 26.546c-1.114 0.074-1.658 0.447-1.658 1.067 0 0.347 0.174 0.521 0.545 0.521 0.223 0 0.47-0.099 0.693-0.298 0.198-0.223 0.346-0.645 0.42-1.29z"></path>
      <path fill="#fff" style="fill: var(--color2, #fff)" d="M98.497 23.345l-0.272 1.563h-1.113l-0.372 2.184c-0.024 0.223-0.048 0.347-0.048 0.397 0 0.298 0.197 0.447 0.569 0.447 0.173 0 0.346-0.025 0.569-0.074l-0.272 1.588c-0.445 0.099-0.841 0.149-1.263 0.149-0.495 0-0.866-0.074-1.113-0.199s-0.445-0.298-0.593-0.521c-0.149-0.223-0.223-0.521-0.223-0.918 0-0.149 0.024-0.447 0.099-0.893l0.371-2.183h-0.841l0.247-1.563h0.841l0.346-1.811 2.202-0.050-0.321 1.861h1.187v0.025z"></path>
      <path fill="#fff" style="fill: var(--color2, #fff)" d="M107.973 23.346l-1.014 6.129h-2.376l1.014-6.129h2.376zM108.368 20.989l-0.297 1.811h-2.376l0.297-1.811h2.375z"></path>
      <path fill="#fff" style="fill: var(--color2, #fff)" d="M118.563 27.093l1.831 0.447c-0.322 0.794-0.767 1.34-1.287 1.638-0.544 0.298-1.089 0.447-1.658 0.447-0.841 0-1.534-0.273-2.054-0.794-0.544-0.546-0.791-1.216-0.791-2.059 0-0.968 0.321-1.811 0.94-2.531 0.618-0.744 1.46-1.092 2.499-1.092 0.742 0 1.385 0.223 1.905 0.67s0.791 1.042 0.791 1.762l-2.078 0.248c0-0.67-0.222-0.992-0.668-0.992-0.372 0-0.644 0.273-0.817 0.819s-0.247 1.017-0.247 1.414c0 0.595 0.222 0.893 0.669 0.893 0.445-0.025 0.766-0.298 0.965-0.868z"></path>
      <path fill="#fff" style="fill: var(--color2, #fff)" d="M133.164 24.761l-1.807 0.397c-0.148-0.397-0.52-0.595-1.138-0.595-0.421 0-0.643 0.124-0.643 0.372 0 0.223 0.198 0.347 0.618 0.422 0.841 0.149 1.436 0.298 1.782 0.471s0.619 0.397 0.792 0.67 0.272 0.571 0.272 0.918c0 0.62-0.248 1.141-0.767 1.563s-1.287 0.62-2.352 0.62c-0.766 0-1.46-0.149-2.029-0.447s-0.94-0.769-1.089-1.365l1.905-0.273c0.149 0.447 0.57 0.67 1.287 0.67 0.272 0 0.47-0.050 0.619-0.124 0.124-0.074 0.197-0.174 0.197-0.273s-0.048-0.174-0.124-0.223c-0.099-0.050-0.322-0.099-0.668-0.198-0.718-0.174-1.213-0.298-1.534-0.422-0.297-0.124-0.569-0.323-0.767-0.62-0.222-0.273-0.322-0.596-0.322-0.968 0-0.62 0.247-1.141 0.742-1.538s1.163-0.595 2.005-0.595c0.767 0 1.435 0.149 1.98 0.447 0.545 0.273 0.891 0.645 1.040 1.092z"></path>
      <path fill="#fff" style="fill: var(--color2, #fff)" d="M9.725 10.547l4.43 0.571c-0.52 1.811-1.411 3.3-2.648 4.441-1.262 1.166-2.846 1.737-4.751 1.737-2.079 0-3.712-0.695-4.924-2.109s-1.831-3.226-1.831-5.434c0-2.556 0.742-4.814 2.252-6.774s3.588-2.953 6.211-2.953c1.905 0 3.464 0.596 4.652 1.762 1.188 1.191 1.806 2.729 1.806 4.665l-4.652 0.347c-0.025-1.017-0.173-1.786-0.47-2.283s-0.792-0.744-1.51-0.744c-1.213 0-2.054 0.918-2.499 2.729s-0.668 3.25-0.668 4.292c0 1.687 0.668 2.556 1.98 2.556 0.643 0 1.188-0.223 1.584-0.645 0.396-0.471 0.742-1.191 1.039-2.159z"></path>
      <path fill="#fff" style="fill: var(--color2, #fff)" d="M27.736 4.69l-5.815 12.406c-0.866 1.811-1.732 2.977-2.623 3.474s-1.955 0.744-3.217 0.744c-0.619 0-1.262-0.074-1.93-0.198v-3.275c1.015 0.099 1.782 0.149 2.301 0.149 1.262 0 1.881-0.347 1.881-1.017 0-0.174-0.050-0.447-0.148-0.794l-2.945-11.463h4.85l1.039 4.913c0.198 0.844 0.297 1.365 0.297 1.563 0.074-0.149 0.173-0.347 0.272-0.62 0.074-0.223 0.173-0.471 0.297-0.695l2.425-5.161h3.316v-0.025z"></path>
      <path fill="#fff" style="fill: var(--color2, #fff)" d="M34.322 0.398l-0.965 5.831c0.643-0.769 1.212-1.265 1.707-1.514s1.064-0.372 1.683-0.372c1.163 0 2.128 0.422 2.821 1.265 0.718 0.844 1.064 2.059 1.064 3.697 0 2.010-0.569 3.821-1.683 5.459s-2.673 2.456-4.652 2.456c-1.881 0-3.192-0.769-3.935-2.332l-1.361 2.059h-2.128l2.747-16.55h4.702zM32.268 12.655c0 0.447 0.025 0.769 0.099 0.943s0.198 0.323 0.421 0.496c0.223 0.149 0.495 0.223 0.817 0.223 0.421 0 0.767-0.124 1.064-0.397s0.569-0.868 0.841-1.811c0.272-0.918 0.396-1.911 0.396-2.977 0-1.216-0.421-1.836-1.287-1.836-0.817 0-1.41 0.62-1.782 1.861l-0.569 3.499z"></path>
      <path fill="#fff" style="fill: var(--color2, #fff)" d="M54.786 11.71h-8.413c-0.050 0.322-0.050 0.571-0.050 0.744 0 0.546 0.173 0.943 0.519 1.265 0.347 0.298 0.767 0.447 1.287 0.447 0.99 0 1.683-0.521 2.103-1.538l4.108 0.67c-0.52 1.191-1.386 2.159-2.573 2.903s-2.499 1.117-3.959 1.117c-1.831 0-3.291-0.521-4.43-1.563s-1.708-2.456-1.708-4.243c0-1.935 0.668-3.623 2.004-5.012s3.093-2.084 5.246-2.084c1.831 0 3.291 0.546 4.38 1.613 1.089 1.092 1.633 2.506 1.633 4.317 0 0.372-0.050 0.844-0.149 1.365zM50.406 9.353c0.049-0.248 0.049-0.447 0.049-0.571 0-0.447-0.124-0.819-0.396-1.141s-0.643-0.496-1.138-0.496c-0.52 0-0.99 0.199-1.411 0.596s-0.668 0.943-0.767 1.613h3.663z"></path>
      <path fill="#fff" style="fill: var(--color2, #fff)" d="M57.855 4.691h4.058l-0.495 2.953c0.842-2.208 2.153-3.325 3.885-3.325 0.149 0 0.322 0.025 0.57 0.050l-0.545 4.367c-0.421-0.025-0.693-0.025-0.841-0.025-1.015 0-1.757 0.248-2.227 0.72s-0.817 1.315-1.015 2.506l-0.841 4.987h-4.652l2.103-12.232z"></path>
      <path fill="#fff" style="fill: var(--color2, #fff)" d="M65.65 16.92l2.747-16.55h6.805c1.238 0 2.252 0.099 3.044 0.323s1.46 0.67 1.98 1.365c0.545 0.695 0.792 1.489 0.792 2.407 0 1.017-0.322 1.861-0.965 2.58-0.644 0.695-1.485 1.191-2.574 1.414 1.807 0.645 2.722 1.836 2.722 3.598 0 1.29-0.445 2.407-1.287 3.375-0.866 0.968-2.301 1.464-4.331 1.464h-8.933v0.025zM71.045 13.273h2.475c0.767 0 1.287-0.174 1.584-0.496s0.445-0.67 0.445-1.042c0-0.471-0.149-0.844-0.47-1.141s-0.792-0.422-1.41-0.422h-2.079l-0.545 3.101zM72.134 6.698h1.881c1.509 0 2.252-0.496 2.252-1.514 0-0.868-0.594-1.315-1.782-1.315h-1.881l-0.47 2.829z"></path>
      <path fill="#fff" style="fill: var(--color2, #fff)" d="M88.268 4.689l-2.054 12.232h-4.751l2.054-12.232h4.751zM89.035 0l-0.594 3.598h-4.751l0.594-3.598h4.751z"></path>
      <path fill="#fff" style="fill: var(--color2, #fff)" d="M95.123 17.293c-1.707 0-3.118-0.496-4.281-1.514s-1.732-2.407-1.732-4.144c0-2.109 0.669-3.846 2.005-5.186 1.336-1.365 3.043-2.035 5.073-2.035 1.88 0 3.365 0.521 4.454 1.588s1.658 2.382 1.658 3.92c0 2.307-0.718 4.119-2.128 5.434-1.411 1.29-3.093 1.935-5.048 1.935zM95.321 14.316c0.841 0 1.411-0.62 1.732-1.886s0.445-2.307 0.445-3.151c0-1.29-0.471-1.935-1.411-1.935-0.841 0-1.411 0.645-1.732 1.935s-0.471 2.332-0.471 3.151c0 1.241 0.496 1.886 1.436 1.886z"></path>
      <path fill="#fff" style="fill: var(--color2, #fff)" d="M105.193 4.691h4.256l-0.322 1.985c0.322-0.819 0.866-1.414 1.609-1.786s1.534-0.571 2.376-0.571c1.039 0 1.88 0.273 2.524 0.819s0.965 1.265 0.965 2.159c0 0.347-0.049 0.769-0.124 1.241l-1.385 8.362h-4.653l1.238-7.344c0.074-0.471 0.124-0.769 0.124-0.943 0-0.695-0.371-1.042-1.089-1.042-0.965 0-1.558 0.645-1.782 1.96l-1.237 7.344h-4.553l2.054-12.183z"></path>
      <path fill="#fff" style="fill: var(--color2, #fff)" d="M124.394 4.689l-2.054 12.232h-4.752l2.054-12.232h4.752zM125.185 0l-0.594 3.598h-4.752l0.594-3.598h4.752z"></path>
      <path fill="#fff" style="fill: var(--color2, #fff)" d="M133.208 12.182l3.687 0.918c-0.668 1.588-1.534 2.68-2.598 3.3s-2.178 0.918-3.316 0.918c-1.683 0-3.069-0.546-4.133-1.613s-1.608-2.456-1.608-4.119c0-1.911 0.618-3.598 1.88-5.086 1.263-1.464 2.921-2.208 4.999-2.208 1.509 0 2.772 0.447 3.836 1.365s1.559 2.084 1.559 3.498l-4.133 0.496c0-1.315-0.445-1.985-1.336-1.985-0.767 0-1.311 0.546-1.634 1.638-0.321 1.092-0.494 2.035-0.494 2.829 0 1.191 0.445 1.787 1.36 1.787 0.891-0.025 1.534-0.596 1.93-1.737z"></path>
    </symbol>
    <symbol id="icon-footer-la_telegram" viewBox="0 0 31 32">
      <path fill="#fff" style="fill: var(--color2, #fff)" d="M26.398 6.829c-0.287 0.021-0.57 0.090-0.835 0.204h-0.004c-0.255 0.103-1.468 0.624-3.313 1.413l-6.609 2.841c-4.742 2.038-9.404 4.044-9.404 4.044l0.056-0.022c0 0-0.321 0.108-0.657 0.343-0.207 0.135-0.386 0.311-0.525 0.518-0.165 0.247-0.297 0.624-0.248 1.014 0.081 0.66 0.5 1.055 0.8 1.274 0.304 0.221 0.594 0.324 0.594 0.324h0.007l4.372 1.503c0.196 0.642 1.332 4.454 1.605 5.332 0.161 0.524 0.318 0.852 0.514 1.103 0.095 0.128 0.206 0.235 0.339 0.321 0.069 0.041 0.143 0.074 0.22 0.097l-0.045-0.011c0.013 0.004 0.024 0.015 0.034 0.018 0.036 0.010 0.060 0.014 0.106 0.021 0.692 0.214 1.248-0.225 1.248-0.225l0.031-0.026 2.581-2.398 4.326 3.387 0.099 0.043c0.902 0.404 1.815 0.179 2.297-0.217 0.486-0.399 0.675-0.91 0.675-0.91l0.031-0.082 3.343-17.478c0.095-0.431 0.119-0.835 0.014-1.227-0.108-0.397-0.357-0.738-0.699-0.957-0.287-0.178-0.62-0.264-0.955-0.247zM26.308 8.702c-0.004 0.058 0.007 0.051-0.018 0.162v0.010l-3.312 17.296c-0.014 0.025-0.038 0.079-0.105 0.132-0.070 0.057-0.125 0.092-0.416-0.026l-5.291-4.14-3.196 2.973 0.671-4.377 8.645-8.223c0.356-0.338 0.237-0.409 0.237-0.409 0.025-0.415-0.538-0.121-0.538-0.121l-10.901 6.892-0.004-0.018-5.238-1.802c0.009-0.003 0.018-0.007 0.027-0.011l0.029-0.015 0.028-0.010c0 0 4.665-2.006 9.408-4.044 2.374-1.021 4.767-2.049 6.607-2.841 1.091-0.469 2.183-0.935 3.277-1.398 0.073-0.029 0.038-0.029 0.091-0.029v-0.001z"></path>
      <path fill="#fff" style="fill: var(--color2, #fff)" d="M5.818 0.039c-3.214 0-5.818 2.605-5.818 5.818-0 0.764 0.15 1.521 0.443 2.227s0.721 1.347 1.261 1.888c0.54 0.54 1.182 0.969 1.888 1.261s1.463 0.443 2.227 0.443c3.213 0 5.818-2.605 5.818-5.818s-2.605-5.818-5.818-5.818zM6.361 2.139c0.567 0 0.734 0.329 0.734 0.705 0 0.47-0.376 0.904-1.018 0.904-0.537 0-0.793-0.27-0.777-0.716 0-0.376 0.315-0.893 1.061-0.893zM4.908 9.341c-0.388 0-0.671-0.236-0.4-1.269l0.444-1.833c0.077-0.293 0.090-0.411 0-0.411-0.116 0-0.619 0.202-0.916 0.402l-0.193-0.317c0.942-0.787 2.026-1.249 2.49-1.249 0.388 0 0.452 0.458 0.259 1.164l-0.509 1.927c-0.090 0.341-0.051 0.458 0.039 0.458 0.116 0 0.497-0.141 0.871-0.436l0.219 0.295c-0.917 0.916-1.916 1.269-2.303 1.269z"></path>
    </symbol>
    <symbol id="icon-footer-mail" viewBox="0 0 31 32">
      <path fill="#fff" style="fill: var(--color2, #fff)" d="M1.939 6.827l0.97-0.97h25.212l0.97 0.97v17.454l-0.97 0.97h-25.212l-0.97-0.97v-17.454zM3.879 8.834v14.478h23.273v-14.476l-11.035 8.463h-1.183l-11.055-8.465zM25.27 7.796h-19.51l9.755 7.503 9.755-7.503z"></path>
    </symbol>
    <symbol id="icon-footer-phone" viewBox="0 0 31 32">
      <path fill="#fff" style="fill: var(--color2, #fff)" d="M25.212 28.16h-0.165c-19.055-1.096-21.76-17.173-22.138-22.080-0.030-0.381 0.015-0.765 0.133-1.129s0.307-0.701 0.555-0.992c0.249-0.291 0.552-0.53 0.893-0.703s0.713-0.278 1.095-0.307h5.343c0.388-0 0.768 0.116 1.090 0.334s0.57 0.527 0.714 0.888l1.474 3.627c0.142 0.353 0.177 0.739 0.101 1.111s-0.259 0.714-0.528 0.983l-2.065 2.085c0.323 1.834 1.201 3.524 2.515 4.842s3.002 2.201 4.835 2.528l2.104-2.085c0.273-0.265 0.618-0.445 0.992-0.515s0.761-0.030 1.112 0.118l3.656 1.464c0.355 0.148 0.659 0.399 0.871 0.72s0.324 0.698 0.322 1.083v5.12c0 0.772-0.307 1.512-0.852 2.057s-1.285 0.852-2.057 0.852zM5.818 4.887c-0.257 0-0.504 0.102-0.686 0.284s-0.284 0.428-0.284 0.686v0.078c0.446 5.741 3.307 19.316 20.305 20.286 0.127 0.008 0.255-0.009 0.376-0.051s0.232-0.107 0.327-0.191c0.096-0.085 0.173-0.187 0.229-0.302s0.088-0.24 0.096-0.367v-5.178l-3.656-1.464-2.783 2.764-0.465-0.058c-8.436-1.057-9.581-9.493-9.581-9.581l-0.058-0.465 2.754-2.783-1.455-3.656h-5.12z"></path>
    </symbol>
    <symbol id="icon-footer-www" viewBox="0 0 31 32">
      <path fill="#fff" style="fill: var(--color2, #fff)" d="M13.964 0.039c-3.703 0-7.255 1.471-9.874 4.090s-4.090 6.17-4.090 9.874c0 3.703 1.471 7.255 4.090 9.874s6.17 4.090 9.874 4.090c3.703 0 7.255-1.471 9.874-4.090s4.090-6.17 4.090-9.874c0-3.703-1.471-7.255-4.090-9.874s-6.17-4.090-9.874-4.090v0zM1.722 15.057h3.894c0.062 1.412 0.259 2.814 0.59 4.189h-3.351c-0.625-1.317-1.009-2.736-1.133-4.189zM15.019 6.679v-4.794c1.495 0.568 2.724 1.675 3.444 3.103 0.318 0.538 0.599 1.098 0.838 1.676l-4.282 0.016zM20.015 8.774c0.36 1.37 0.574 2.774 0.636 4.189h-5.632v-4.189h4.996zM12.909 1.885v4.794h-4.282c0.239-0.578 0.519-1.138 0.838-1.676 0.717-1.434 1.946-2.547 3.444-3.119zM12.909 8.774v4.189h-5.617c0.062-1.415 0.276-2.819 0.636-4.189h4.98zM5.617 12.947h-3.894c0.124-1.453 0.508-2.872 1.133-4.189h3.351c-0.331 1.374-0.529 2.777-0.59 4.189zM7.292 15.057h5.617v4.189h-4.98c-0.36-1.37-0.573-2.774-0.636-4.189zM12.924 21.264v4.794c-1.495-0.568-2.724-1.675-3.444-3.103-0.319-0.538-0.598-1.098-0.838-1.676l4.282-0.015zM15.019 26.058v-4.717h4.282c-0.239 0.578-0.519 1.138-0.838 1.676-0.721 1.428-1.949 2.535-3.444 3.103v-0.062zM15.019 19.169v-4.189h5.617c-0.063 1.415-0.276 2.819-0.636 4.189h-4.98zM22.326 14.98h3.894c-0.124 1.453-0.508 2.872-1.133 4.189h-3.367c0.326-1.35 0.523-2.726 0.59-4.111l0.015-0.078zM22.326 12.885c-0.071-1.387-0.274-2.763-0.605-4.111h3.351c0.625 1.319 1.009 2.737 1.133 4.189l-3.879-0.078zM23.878 6.679h-2.777c-0.503-1.411-1.231-2.732-2.157-3.91 1.931 0.867 3.608 2.213 4.872 3.91h0.062zM8.983 2.769c-0.926 1.178-1.654 2.498-2.157 3.91h-2.715c1.264-1.697 2.941-3.043 4.872-3.91zM4.096 21.388h2.731c0.503 1.412 1.231 2.732 2.157 3.91-1.936-0.88-3.614-2.242-4.872-3.956l-0.016 0.047zM18.928 25.297c0.926-1.178 1.654-2.498 2.157-3.91h2.731c-1.272 1.675-2.948 2.999-4.872 3.848l-0.015 0.062z"></path>
    </symbol>
    <symbol id="icon-social-facebook" viewBox="0 0 31 32">
      <path fill="#fff" style="fill: var(--color2, #fff)" d="M3.614 1.009c-1.447 0-2.645 1.198-2.645 2.645v23.802c0 1.447 1.198 2.645 2.645 2.645h23.802c1.447 0 2.645-1.198 2.645-2.645v-23.802c0-1.447-1.198-2.645-2.645-2.645h-23.802zM3.614 3.653h23.802v23.802h-6.86v-8.926h3.43l0.496-3.967h-3.925v-2.563c0-1.156 0.283-1.941 1.941-1.941h2.149v-3.595c-0.366-0.046-1.637-0.124-3.098-0.124-3.048 0-5.124 1.834-5.124 5.248v2.975h-3.471v3.967h3.47v8.926h-12.809v-23.802z"></path>
    </symbol>
    <symbol id="icon-social-instagram" viewBox="0 0 31 32">
      <path fill="#fff" style="fill: var(--color2, #fff)" d="M9.652 1.418c1.517-0.070 2-0.085 5.863-0.085s4.347 0.017 5.862 0.085c1.515 0.069 2.55 0.31 3.455 0.661 0.948 0.358 1.808 0.918 2.519 1.642 0.724 0.71 1.283 1.568 1.639 2.517 0.352 0.905 0.592 1.939 0.662 3.452 0.070 1.519 0.085 2.003 0.085 5.865 0 3.863-0.017 4.347-0.085 5.863-0.069 1.513-0.31 2.547-0.662 3.452-0.357 0.949-0.916 1.809-1.639 2.52-0.711 0.724-1.571 1.283-2.519 1.639-0.905 0.352-1.939 0.592-3.452 0.662-1.518 0.070-2.001 0.085-5.865 0.085s-4.347-0.017-5.863-0.085c-1.513-0.069-2.547-0.31-3.452-0.662-0.949-0.357-1.809-0.916-2.52-1.639-0.724-0.71-1.283-1.57-1.641-2.519-0.35-0.905-0.591-1.939-0.661-3.452-0.070-1.519-0.085-2.003-0.085-5.865 0-3.863 0.017-4.347 0.085-5.862s0.31-2.55 0.661-3.455c0.358-0.949 0.918-1.808 1.642-2.519 0.71-0.723 1.569-1.283 2.517-1.641 0.905-0.35 1.939-0.591 3.452-0.661h0.001zM21.263 3.978c-1.5-0.069-1.95-0.083-5.747-0.083s-4.247 0.014-5.747 0.083c-1.387 0.063-2.14 0.295-2.641 0.49-0.663 0.259-1.138 0.565-1.636 1.063-0.472 0.459-0.835 1.018-1.063 1.636-0.195 0.502-0.427 1.254-0.49 2.641-0.069 1.5-0.083 1.95-0.083 5.747s0.014 4.247 0.083 5.747c0.063 1.387 0.295 2.14 0.49 2.641 0.228 0.617 0.591 1.177 1.063 1.636 0.459 0.472 1.019 0.835 1.636 1.063 0.502 0.195 1.254 0.427 2.641 0.49 1.5 0.068 1.948 0.083 5.747 0.083s4.247-0.014 5.747-0.083c1.387-0.063 2.14-0.295 2.641-0.49 0.663-0.259 1.138-0.565 1.636-1.063 0.472-0.459 0.835-1.019 1.063-1.636 0.195-0.502 0.427-1.254 0.49-2.641 0.069-1.5 0.083-1.95 0.083-5.747s-0.014-4.247-0.083-5.747c-0.063-1.387-0.295-2.14-0.49-2.641-0.259-0.663-0.565-1.138-1.063-1.636-0.459-0.472-1.018-0.835-1.636-1.063-0.502-0.195-1.254-0.427-2.641-0.49zM13.699 19.939c1.014 0.422 2.144 0.479 3.196 0.161s1.961-0.991 2.571-1.905c0.611-0.914 0.885-2.011 0.776-3.104s-0.594-2.115-1.372-2.891c-0.496-0.496-1.096-0.876-1.757-1.112s-1.365-0.323-2.063-0.254-1.372 0.292-1.974 0.652c-0.602 0.361-1.116 0.85-1.506 1.434s-0.645 1.246-0.748 1.94c-0.103 0.694-0.051 1.402 0.153 2.073s0.553 1.289 1.024 1.809c0.471 0.52 1.051 0.929 1.699 1.198zM10.347 10.385c0.679-0.679 1.485-1.217 2.372-1.585s1.838-0.556 2.797-0.556c0.96 0 1.911 0.189 2.798 0.556s1.693 0.906 2.372 1.585c0.679 0.679 1.217 1.485 1.585 2.372s0.556 1.837 0.556 2.797-0.189 1.911-0.556 2.797c-0.367 0.887-0.906 1.693-1.585 2.372-1.371 1.371-3.23 2.141-5.169 2.141s-3.798-0.77-5.169-2.141c-1.371-1.371-2.141-3.23-2.141-5.169s0.77-3.798 2.141-5.169zM24.447 9.333c0.168-0.159 0.303-0.35 0.396-0.561s0.143-0.44 0.146-0.671c0.003-0.231-0.040-0.461-0.127-0.675s-0.216-0.409-0.38-0.572-0.358-0.293-0.573-0.38c-0.214-0.087-0.444-0.13-0.675-0.127s-0.459 0.053-0.671 0.146-0.402 0.228-0.561 0.396c-0.309 0.327-0.478 0.762-0.471 1.211s0.188 0.879 0.506 1.197c0.318 0.318 0.747 0.5 1.197 0.506s0.884-0.162 1.211-0.471z"></path>
    </symbol>
    <symbol id="icon-social-linkedin" viewBox="0 0 31 32">
      <path fill="#fff" style="fill: var(--color2, #fff)" d="M12.19 11.636h4.802v2.392c0.692-1.376 2.466-2.612 5.13-2.612 5.108 0 6.321 2.738 6.321 7.763v9.305h-5.172v-8.161c0-2.861-0.692-4.475-2.453-4.475-2.442 0-3.457 1.739-3.457 4.473v8.162h-5.172v-16.848zM3.322 28.265h5.172v-16.848h-5.172v16.848zM9.235 5.923c0 0.433-0.086 0.863-0.253 1.263s-0.412 0.763-0.721 1.067c-0.625 0.621-1.472 0.969-2.353 0.967-0.88-0.001-1.724-0.348-2.351-0.966-0.307-0.306-0.552-0.669-0.718-1.069s-0.253-0.829-0.254-1.262c0-0.875 0.349-1.713 0.974-2.331 0.626-0.619 1.47-0.966 2.351-0.966 0.882 0 1.727 0.348 2.352 0.966 0.623 0.618 0.974 1.456 0.974 2.331z"></path>
    </symbol>
    <symbol id="icon-social-telegram" viewBox="0 0 31 32">
      <path fill="#fff" style="fill: var(--color2, #fff)" d="M26.465 2.49c-0.353 0.025-0.699 0.107-1.026 0.242h-0.004c-0.313 0.123-1.803 0.74-4.068 1.677l-8.117 3.371c-5.824 2.418-11.549 4.799-11.549 4.799l0.068-0.026c0 0-0.395 0.128-0.807 0.407-0.255 0.16-0.474 0.369-0.644 0.615-0.202 0.293-0.365 0.74-0.305 1.203 0.099 0.783 0.614 1.252 0.983 1.511 0.374 0.262 0.73 0.385 0.73 0.385h0.009l5.369 1.783c0.241 0.762 1.636 5.285 1.971 6.327 0.198 0.622 0.39 1.012 0.631 1.309 0.117 0.152 0.253 0.279 0.417 0.381 0.085 0.049 0.176 0.087 0.27 0.115l-0.055-0.013c0.017 0.004 0.030 0.017 0.042 0.022 0.044 0.012 0.074 0.016 0.13 0.025 0.85 0.254 1.533-0.267 1.533-0.267l0.039-0.030 3.17-2.846 5.313 4.019 0.121 0.051c1.107 0.479 2.229 0.213 2.821-0.258 0.597-0.474 0.829-1.080 0.829-1.080l0.038-0.098 4.105-20.739c0.117-0.512 0.146-0.991 0.018-1.456-0.133-0.471-0.439-0.876-0.859-1.135-0.352-0.211-0.761-0.313-1.173-0.293zM26.354 4.713c-0.004 0.068 0.009 0.061-0.022 0.192v0.012l-4.067 20.523c-0.018 0.029-0.047 0.093-0.129 0.157-0.086 0.067-0.154 0.11-0.511-0.030l-6.498-4.912-3.925 3.528 0.825-5.193 10.617-9.758c0.438-0.401 0.291-0.486 0.291-0.486 0.031-0.492-0.661-0.144-0.661-0.144l-13.388 8.178-0.004-0.022-6.433-2.138c0.011-0.004 0.022-0.008 0.033-0.013l0.035-0.017 0.034-0.012c0 0 5.729-2.381 11.554-4.799 2.916-1.211 5.854-2.431 8.113-3.372 1.34-0.556 2.681-1.109 4.024-1.659 0.090-0.035 0.047-0.035 0.112-0.035v-0.001z"></path>
    </symbol>
    <symbol id="icon-social-youtube" viewBox="0 0 31 32">
      <path fill="#fff" style="fill: var(--color2, #fff)" d="M31.030 15.454c0-0.079 0-0.168-0.003-0.272-0.003-0.29-0.010-0.616-0.017-0.963-0.028-0.999-0.076-1.995-0.152-2.933-0.104-1.293-0.256-2.371-0.464-3.18-0.219-0.845-0.649-1.615-1.247-2.234s-1.341-1.065-2.158-1.294c-0.98-0.272-2.899-0.441-5.6-0.544-1.285-0.050-2.66-0.082-4.035-0.1-0.481-0.007-0.928-0.011-1.33-0.014h-1.018c-0.402 0.004-0.848 0.007-1.33 0.014-1.375 0.018-2.75 0.050-4.035 0.1-2.701 0.107-4.623 0.276-5.6 0.544-0.817 0.228-1.561 0.674-2.158 1.293s-1.027 1.39-1.246 2.235c-0.211 0.809-0.36 1.887-0.464 3.18-0.076 0.938-0.125 1.934-0.152 2.933-0.010 0.347-0.014 0.673-0.017 0.963 0 0.104-0.003 0.193-0.003 0.272v0.201c0 0.079 0 0.168 0.003 0.272 0.003 0.29 0.010 0.616 0.017 0.963 0.028 0.999 0.076 1.995 0.152 2.933 0.104 1.293 0.256 2.371 0.464 3.18 0.443 1.716 1.745 3.069 3.404 3.528 0.977 0.272 2.899 0.441 5.6 0.544 1.285 0.050 2.66 0.082 4.035 0.1 0.481 0.007 0.928 0.011 1.33 0.014h1.018c0.402-0.004 0.849-0.007 1.33-0.014 1.375-0.018 2.75-0.050 4.035-0.1 2.701-0.107 4.623-0.276 5.6-0.544 1.659-0.458 2.961-1.809 3.404-3.528 0.211-0.809 0.36-1.887 0.464-3.18 0.076-0.938 0.125-1.934 0.152-2.933 0.010-0.347 0.014-0.673 0.017-0.963 0-0.104 0.003-0.193 0.003-0.272v-0.201zM28.537 15.64c0 0.075 0 0.158-0.003 0.254-0.003 0.279-0.010 0.587-0.017 0.92-0.024 0.953-0.073 1.905-0.145 2.79-0.093 1.153-0.225 2.099-0.388 2.733-0.215 0.827-0.845 1.483-1.642 1.701-0.727 0.201-2.559 0.362-5.049 0.458-1.261 0.050-2.618 0.082-3.972 0.1-0.474 0.007-0.914 0.011-1.309 0.011h-0.99l-1.309-0.011c-1.354-0.018-2.708-0.050-3.972-0.1-2.49-0.1-4.326-0.258-5.049-0.458-0.797-0.222-1.427-0.874-1.642-1.701-0.163-0.634-0.294-1.579-0.388-2.733-0.073-0.885-0.118-1.837-0.145-2.79-0.010-0.333-0.014-0.645-0.017-0.92 0-0.097-0.003-0.183-0.003-0.254v-0.172c0-0.075 0-0.158 0.003-0.254 0.003-0.279 0.010-0.587 0.017-0.921 0.024-0.953 0.073-1.905 0.145-2.79 0.094-1.153 0.225-2.099 0.388-2.733 0.215-0.827 0.845-1.483 1.642-1.701 0.727-0.201 2.559-0.362 5.049-0.458 1.261-0.050 2.618-0.082 3.972-0.1 0.474-0.007 0.914-0.011 1.309-0.011h0.99l1.309 0.011c1.354 0.018 2.708 0.050 3.972 0.1 2.49 0.1 4.326 0.258 5.049 0.458 0.796 0.222 1.427 0.874 1.642 1.701 0.163 0.634 0.294 1.579 0.388 2.733 0.073 0.885 0.118 1.837 0.145 2.79 0.010 0.333 0.014 0.645 0.017 0.921 0 0.097 0.003 0.183 0.003 0.254v0.172zM12.433 20.353l8.035-4.835-8.035-4.763v9.599z"></path>
    </symbol>
  </defs>
</svg>